<svg xmlns="http://www.w3.org/2000/svg" xmlns:xlink="http://www.w3.org/1999/xlink" width="1080" zoomAndPan="magnify" viewBox="0 0 810 809.999993" height="1080" preserveAspectRatio="xMidYMid meet" version="1.0"><defs><clipPath id="b351264b79"><path d="M 21.476562 200.398438 L 810 200.398438 L 810 609.898438 L 21.476562 609.898438 Z M 21.476562 200.398438 " clip-rule="nonzero"/></clipPath><clipPath id="9830f6576e"><path d="M 13 0.398438 L 789 0.398438 L 789 313 L 13 313 Z M 13 0.398438 " clip-rule="nonzero"/></clipPath><clipPath id="7faae51717"><path d="M 11 0.398438 L 789 0.398438 L 789 313 L 11 313 Z M 11 0.398438 " clip-rule="nonzero"/></clipPath><clipPath id="b5f1fa7ca6"><path d="M 10 0.398438 L 789 0.398438 L 789 314 L 10 314 Z M 10 0.398438 " clip-rule="nonzero"/></clipPath><clipPath id="a82a454554"><path d="M 8 0.398438 L 789 0.398438 L 789 314 L 8 314 Z M 8 0.398438 " clip-rule="nonzero"/></clipPath><clipPath id="8be3d0db52"><path d="M 7 3 L 789 3 L 789 315 L 7 315 Z M 7 3 " clip-rule="nonzero"/></clipPath><clipPath id="00ff53de39"><path d="M 5 6 L 789 6 L 789 316 L 5 316 Z M 5 6 " clip-rule="nonzero"/></clipPath><clipPath id="0c27db952b"><path d="M 4 8 L 789 8 L 789 317 L 4 317 Z M 4 8 " clip-rule="nonzero"/></clipPath><clipPath id="2a36b931e5"><path d="M 2 11 L 789 11 L 789 318 L 2 318 Z M 2 11 " clip-rule="nonzero"/></clipPath><clipPath id="0f58e9ae45"><path d="M 0.746094 14 L 789 14 L 789 319 L 0.746094 319 Z M 0.746094 14 " clip-rule="nonzero"/></clipPath><clipPath id="e108ccda60"><path d="M 0.746094 17 L 789 17 L 789 320 L 0.746094 320 Z M 0.746094 17 " clip-rule="nonzero"/></clipPath><clipPath id="cdf601b95b"><path d="M 0.746094 19 L 789 19 L 789 322 L 0.746094 322 Z M 0.746094 19 " clip-rule="nonzero"/></clipPath><clipPath id="f21b0946af"><path d="M 0.746094 13 L 789 13 L 789 323 L 0.746094 323 Z M 0.746094 13 " clip-rule="nonzero"/></clipPath><clipPath id="8db588aa89"><path d="M 0.746094 8 L 789 8 L 789 324 L 0.746094 324 Z M 0.746094 8 " clip-rule="nonzero"/></clipPath><clipPath id="ea2f55eb6d"><path d="M 0.746094 2 L 789 2 L 789 326 L 0.746094 326 Z M 0.746094 2 " clip-rule="nonzero"/></clipPath><clipPath id="d28209921c"><path d="M 0.746094 0.398438 L 789 0.398438 L 789 327 L 0.746094 327 Z M 0.746094 0.398438 " clip-rule="nonzero"/></clipPath><clipPath id="1732d30492"><path d="M 0.746094 0.398438 L 789 0.398438 L 789 329 L 0.746094 329 Z M 0.746094 0.398438 " clip-rule="nonzero"/></clipPath><clipPath id="afe627da0a"><path d="M 0.746094 1 L 789 1 L 789 331 L 0.746094 331 Z M 0.746094 1 " clip-rule="nonzero"/></clipPath><clipPath id="e1965e3fc2"><path d="M 0.746094 10 L 789 10 L 789 333 L 0.746094 333 Z M 0.746094 10 " clip-rule="nonzero"/></clipPath><clipPath id="7a098c3d26"><path d="M 0.746094 20 L 789 20 L 789 336 L 0.746094 336 Z M 0.746094 20 " clip-rule="nonzero"/></clipPath><clipPath id="dbe1e7d014"><path d="M 0.746094 29 L 789 29 L 789 340 L 0.746094 340 Z M 0.746094 29 " clip-rule="nonzero"/></clipPath><clipPath id="af37e076a8"><path d="M 0.746094 39 L 789 39 L 789 345 L 0.746094 345 Z M 0.746094 39 " clip-rule="nonzero"/></clipPath><clipPath id="68c8c4bb4a"><path d="M 0.746094 48 L 789 48 L 789 351 L 0.746094 351 Z M 0.746094 48 " clip-rule="nonzero"/></clipPath><clipPath id="57fe23d109"><path d="M 0.746094 58 L 789 58 L 789 357 L 0.746094 357 Z M 0.746094 58 " clip-rule="nonzero"/></clipPath><clipPath id="1cd93f3556"><path d="M 1 67 L 789 67 L 789 363 L 1 363 Z M 1 67 " clip-rule="nonzero"/></clipPath><clipPath id="3a4c96dcc0"><path d="M 2 77 L 789 77 L 789 370 L 2 370 Z M 2 77 " clip-rule="nonzero"/></clipPath><clipPath id="b4a6481014"><path d="M 3 86 L 789 86 L 789 377 L 3 377 Z M 3 86 " clip-rule="nonzero"/></clipPath><clipPath id="91a8895cd0"><path d="M 5 96 L 789 96 L 789 385 L 5 385 Z M 5 96 " clip-rule="nonzero"/></clipPath><clipPath id="6eb9565b7c"><path d="M 6 105 L 789 105 L 789 393 L 6 393 Z M 6 105 " clip-rule="nonzero"/></clipPath><clipPath id="0b570a62d4"><path d="M 7 115 L 789 115 L 789 401 L 7 401 Z M 7 115 " clip-rule="nonzero"/></clipPath><clipPath id="04ff40160a"><path d="M 9 124 L 789 124 L 789 409 L 9 409 Z M 9 124 " clip-rule="nonzero"/></clipPath><clipPath id="3e962ec32a"><path d="M 10 134 L 789 134 L 789 409.898438 L 10 409.898438 Z M 10 134 " clip-rule="nonzero"/></clipPath><clipPath id="a4c70426bc"><rect x="0" width="789" y="0" height="410"/></clipPath></defs><g clip-path="url(#b351264b79)"><g transform="matrix(1, 0, 0, 1, 21, 200)"><g clip-path="url(#a4c70426bc)"><g clip-path="url(#9830f6576e)"><path stroke-linecap="butt" transform="matrix(-0.810013, 0, 0, 0.810891, 795.15337, 2.668042)" fill="none" stroke-linejoin="miter" d="M 951.099877 195.998623 C 924.098964 219.400735 897.001601 242.79803 870.000688 266.098981 C 852.798999 280.998679 834.999326 296.201863 813.39956 303.100139 C 762.001858 319.599158 707.001783 283.498822 677.498017 238.298736 C 647.999073 193.098649 635.200284 139.102297 610.099417 91.300905 C 584.99855 43.499513 540.000243 -0.900913 486.099688 0.79957 C 435.401241 2.297729 394.198205 44.597842 373.697958 90.901075 C 353.197711 137.19949 347.801386 188.700516 333.898255 237.397913 C 319.999946 286.100127 294.199823 335.698347 248.400989 357.6023 C 194.601706 383.398577 122.202222 357.6023 96.701091 303.702293 C 79.701945 267.601957 82.701511 225.701674 75.400317 186.397879 C 68.099124 147.200064 42.699265 104.697627 2.79829 102.602131 " stroke="#b3b3b3" stroke-width="1" stroke-opacity="1" stroke-miterlimit="10"/></g><g clip-path="url(#7faae51717)"><path stroke-linecap="butt" transform="matrix(-0.810013, 0, 0, 0.810891, 795.15337, 2.668042)" fill="none" stroke-linejoin="miter" d="M 2.499298 95.8002 C 43.601063 97.601844 70.900969 140.099464 79.701945 180.101757 C 88.498099 220.099234 86.598053 263.199007 104.098734 300.397672 C 124.999244 344.89926 175.697691 371.899844 223.700386 367.699218 C 234.898121 366.702051 245.898136 364.100746 256.198895 359.500289 C 277.499669 350.198215 295.00035 334.999848 308.898659 316.501678 C 325.700085 294.299056 337.298084 267.298471 345.399805 240.399049 C 348.698362 229.300146 351.601479 218.100082 354.302053 206.798856 C 363.49847 167.899709 370.900935 128.398408 387.499818 92.201728 C 408.000065 47.300309 448.09876 6.300849 497.398695 4.301698 C 523.898073 3.198552 548.299684 13.300287 569.301466 29.601799 C 589.801713 45.599826 606.90213 67.397801 619.401928 90.197759 C 636.801338 122.001124 648.500608 156.998313 663.599708 190.001169 C 670.298095 204.698543 677.599289 219.102067 686.501536 232.701112 C 712.099116 272.101252 756.701982 304.598298 801.497746 301.100987 C 806.898893 300.701157 812.401312 299.699173 817.701187 298.201014 C 838.698147 292.198743 856.198828 278.301029 873.197974 264.600822 C 900.001167 243.000354 926.698266 220.797732 952.999923 197.901429 " stroke="#b3b3b3" stroke-width="1" stroke-opacity="1" stroke-miterlimit="10"/></g><g clip-path="url(#b5f1fa7ca6)"><path stroke-linecap="butt" transform="matrix(-0.810013, 0, 0, 0.810891, 795.15337, 2.668042)" fill="none" stroke-linejoin="miter" d="M 2.398027 88.998268 C 44.801854 90.400083 73.900534 132.998864 84.201293 173.800818 C 94.502053 214.597955 93.797975 258.699713 111.800191 297.19903 C 132.898422 342.399116 182.59862 371.29769 231.300571 368.701202 C 242.599578 368.099048 253.802136 365.801229 264.401887 361.600602 C 286.199374 353.001844 304.399311 338.299652 319.001698 319.897826 C 336.598828 297.902345 348.799634 270.699437 357.301618 243.501346 C 360.797897 232.301282 363.802285 220.898894 366.599307 209.501323 C 376.302082 170.101184 384.20126 130.098891 401.499398 93.598725 C 422.100917 50.200283 460.998821 10.59782 508.900245 8.097676 C 534.700367 6.700679 558.499172 15.997937 579.201962 31.398627 C 599.499665 46.500649 616.402363 67.301456 628.90216 89.301754 C 646.30157 119.900811 658.299832 153.69851 673.09994 185.800543 C 679.701878 200.098087 686.9018 214.10178 695.500233 227.300995 C 720.398557 265.69915 763.101377 297.700022 806.300909 295.802032 C 811.499513 295.599709 816.799389 294.800048 821.997993 293.499396 C 842.300519 288.397947 859.598657 275.902048 876.400083 263.300169 C 902.899461 243.400184 929.398839 222.498215 954.89997 200.001742 " stroke="#b3b3b3" stroke-width="1" stroke-opacity="1" stroke-miterlimit="10"/></g><g clip-path="url(#a82a454554)"><path stroke-linecap="butt" transform="matrix(-0.810013, 0, 0, 0.810891, 795.15337, 2.668042)" fill="none" stroke-linejoin="miter" d="M 2.200306 82.201154 C 45.901373 83.299483 76.798828 125.999426 88.700642 167.499879 C 100.597633 209.000331 100.997897 254.30158 119.400376 294.000388 C 140.701151 339.797811 189.49955 370.599192 238.698214 369.698369 C 250.098492 369.500863 261.498771 367.501711 272.402337 363.700916 C 294.701358 355.800655 313.600551 341.599456 328.902194 323.399954 C 347.299851 301.500818 360.098641 274.297909 369.10216 246.699988 C 372.800982 235.398762 375.998268 223.90003 378.901384 212.401297 C 389.100872 172.601327 397.501585 132.001697 415.498979 95.198046 C 435.999226 53.201418 473.898882 14.899608 520.300523 11.802128 C 545.300118 10.101645 568.60221 18.599242 589.001186 33.09911 C 608.999897 47.300309 625.801323 67.200294 638.301121 88.29977 C 655.801802 117.699336 667.901336 150.398706 682.600172 181.498755 C 689.100839 195.300124 696.199489 208.89917 704.600202 221.799716 C 728.79927 259.200705 769.500772 290.700584 811.301793 290.300754 C 816.399125 290.199592 821.400009 289.6986 826.502164 288.600271 C 846.201884 284.500806 863.20103 273.300742 879.799912 261.80201 C 906.000298 243.597691 932.301956 223.90003 956.997737 201.79857 " stroke="#b3b3b3" stroke-width="1" stroke-opacity="1" stroke-miterlimit="10"/></g><g clip-path="url(#8be3d0db52)"><path stroke-linecap="butt" transform="matrix(-0.810013, 0, 0, 0.810891, 795.15337, 2.668042)" fill="none" stroke-linejoin="miter" d="M 1.997763 75.399223 C 47.000893 76.198883 79.600673 118.898827 93.098719 161.19894 C 106.601587 203.499053 108.197819 249.89863 127.000562 290.700584 C 148.499057 337.201323 196.40048 369.799531 246.201951 370.599192 C 257.79995 370.801515 269.301499 369.101032 280.397963 365.598905 C 303.102071 358.40196 322.89824 344.701753 338.797867 326.699758 C 358.000874 304.998128 371.397648 277.597713 380.801431 249.701123 C 384.697973 238.298736 388.001353 226.597679 391.10219 214.997785 C 401.79839 174.70164 410.700638 133.601018 429.300839 96.402354 C 449.699814 55.797906 486.499951 18.801566 531.498258 15.299438 C 555.798598 13.401449 578.497883 20.998223 598.501418 34.602086 C 618.201137 47.897646 634.80002 66.800464 647.502361 87.100279 C 664.998219 115.199192 677.401568 146.800234 691.801412 176.99946 C 698.200807 190.400999 705.198186 203.600214 713.299907 216.202093 C 736.900991 252.601097 775.499903 283.599984 815.801141 284.799475 C 820.700753 284.900637 825.600365 284.601968 830.499977 283.802308 C 849.601713 280.598849 866.301867 270.699437 882.601757 260.400195 C 908.498329 244.002338 934.500994 225.499351 958.401071 203.797721 " stroke="#b3b3b3" stroke-width="1" stroke-opacity="1" stroke-miterlimit="10"/></g><g clip-path="url(#00ff53de39)"><path stroke-linecap="butt" transform="matrix(-0.810013, 0, 0, 0.810891, 795.15337, 2.668042)" fill="none" stroke-linejoin="miter" d="M 1.800042 68.602109 C 48.100412 69.001939 82.498968 111.798227 97.501618 154.898 C 112.499447 197.997774 115.301292 245.399335 134.600748 287.501942 C 156.398234 334.70118 203.30141 369.202194 253.700865 371.500014 C 265.400135 372.001006 277.200677 370.801515 288.499684 367.598056 C 311.700505 361.09961 332.200751 347.900395 348.799634 330.100723 C 368.899617 308.601417 382.701477 280.998679 392.698422 252.798604 C 396.802329 241.198709 400.298607 229.497653 403.500716 217.700252 C 414.698452 176.898298 424.102234 135.200339 443.401691 97.799351 C 463.699394 58.69788 499.501284 23.002192 542.999808 18.89791 C 566.499621 16.701253 588.702194 23.498367 608.401913 36.201407 C 627.89909 48.600962 644.300252 66.59814 656.99777 86.00195 C 674.498451 112.901373 687.099521 143.399268 701.398093 172.500166 C 707.802311 185.501874 714.601969 198.301259 722.399875 210.49849 C 745.301704 246.001489 781.899298 276.398222 820.700753 279.100689 C 825.397822 279.399358 830.099714 279.298196 834.801605 278.700859 C 853.199263 276.499384 869.701696 267.900625 885.799044 258.699713 C 911.401445 244.002338 937.201568 226.698841 960.301117 205.498204 " stroke="#b3b3b3" stroke-width="1" stroke-opacity="1" stroke-miterlimit="10"/></g><g clip-path="url(#0c27db952b)"><path stroke-linecap="butt" transform="matrix(-0.810013, 0, 0, 0.810891, 795.15337, 2.668042)" fill="none" stroke-linejoin="miter" d="M 1.602322 61.800177 C 49.09866 61.901339 85.402084 104.798789 101.899695 148.601878 C 118.402129 192.40015 122.399942 241.001203 142.200933 284.298483 C 164.200963 332.201036 210.20234 368.498878 261.098507 372.501998 C 272.899049 373.398003 284.902134 372.501998 296.500133 369.602025 C 320.197666 363.802077 341.49844 351.099037 358.70013 333.400527 C 379.60064 312.098728 394.000484 284.399645 404.397692 255.799739 C 408.598049 244.098683 412.301692 232.20012 415.701522 220.301557 C 427.400792 178.998611 437.200016 136.79966 457.3 99.100004 C 477.501254 61.400347 512.198802 27.101656 554.400087 22.5012 C 577.200644 20.001056 598.80041 25.99851 618.201137 37.800728 C 637.399322 49.400622 653.699213 66.299472 666.401553 84.898804 C 683.902234 110.598736 696.701024 139.901957 710.898325 168.102033 C 717.201271 180.597932 723.798386 193.002304 731.499844 204.900867 C 753.702416 239.401882 788.298693 269.398785 825.600365 273.599411 C 830.099714 274.100403 834.599062 274.201565 839.199682 273.898079 C 856.999355 272.602244 873.197974 265.400482 889.097601 257.297898 C 914.401011 244.402168 939.902142 228.298162 962.297612 207.502172 " stroke="#b3b3b3" stroke-width="1" stroke-opacity="1" stroke-miterlimit="10"/></g><g clip-path="url(#2a36b931e5)"><path stroke-linecap="butt" transform="matrix(-0.810013, 0, 0, 0.810891, 795.15337, 2.668042)" fill="none" stroke-linejoin="miter" d="M 1.50105 54.998246 C 50.29945 54.800739 88.40165 97.698189 106.500315 142.300939 C 124.598981 186.898872 129.701136 236.598253 149.90239 281.099841 C 172.100141 329.700893 217.199719 367.901542 268.698693 373.499165 C 280.701778 374.799818 292.801312 374.197664 304.601854 371.702338 C 328.800922 366.499727 350.800952 354.398841 368.701897 336.897837 C 390.398112 315.798362 405.400763 287.901772 416.299506 258.998381 C 420.702405 247.20098 424.598947 235.201255 428.100048 223.100369 C 440.300853 181.40241 450.500341 138.601305 471.400852 100.598163 C 491.399563 64.300321 525.200135 31.302282 565.901637 26.200834 C 587.901666 23.402022 608.999897 28.599815 628.101633 39.501211 C 647.000826 50.301445 663.199445 66.299472 675.998234 83.997982 C 693.600187 108.402078 706.60152 136.698498 720.499829 163.901407 C 726.701503 176.002293 733.202169 188.002018 740.599812 199.50075 C 762.098307 232.999781 794.698088 262.500508 830.601249 268.199294 C 834.898054 268.897792 839.300954 269.201278 843.699031 269.100116 C 860.90072 268.801448 876.800347 262.900339 892.502253 255.900901 C 917.598297 244.700837 942.800436 229.9023 964.400202 209.501323 " stroke="#b3b3b3" stroke-width="1" stroke-opacity="1" stroke-miterlimit="10"/></g><g clip-path="url(#0f58e9ae45)"><path stroke-linecap="butt" transform="matrix(-0.810013, 0, 0, 0.810891, 795.15337, 2.668042)" fill="none" stroke-linejoin="miter" d="M 1.298507 48.201132 C 51.398969 47.598978 91.299944 90.698751 110.898392 136 C 130.501663 181.301248 136.799786 232.098958 157.497754 277.800037 C 179.898047 327.099588 224.100649 367.101881 276.197607 374.298826 C 288.301964 375.999308 300.599218 375.70064 312.698752 373.600327 C 337.399356 369.101032 360.199912 357.399976 378.698841 340.197641 C 401.301678 319.300489 416.801041 291.201576 428.100048 261.999516 C 432.700668 250.100954 436.698481 237.898905 440.402125 225.701674 C 453.200915 183.497906 463.800666 140.099464 485.400432 101.898815 C 505.201423 66.99797 538.100196 35.401747 577.398364 29.799306 C 598.597867 26.701826 619.199385 31.099959 638.002129 41.100532 C 656.698778 50.898782 672.699677 65.899642 685.498466 82.702146 C 703.100419 105.901935 716.299472 132.998864 730.101332 159.199788 C 736.201735 170.900845 742.60113 182.500739 749.801052 193.700803 C 770.600291 226.197849 801.198754 255.202402 835.602132 262.500508 C 839.701217 263.401331 843.901574 263.902323 848.198379 263.998668 C 864.700813 264.600822 880.397896 260.000365 895.902082 254.200418 C 920.699134 244.801999 945.602281 231.101791 966.497969 211.201806 " stroke="#b3b3b3" stroke-width="1" stroke-opacity="1" stroke-miterlimit="10"/></g><g clip-path="url(#e108ccda60)"><path stroke-linecap="butt" transform="matrix(-0.810013, 0, 0, 0.810891, 795.15337, 2.668042)" fill="none" stroke-linejoin="miter" d="M 1.100787 41.3992 C 52.498489 40.498378 94.101789 83.598151 115.301292 129.800222 C 136.500794 176.002293 143.898437 227.801987 165.097939 274.69774 C 187.700776 324.700606 231.001579 366.499727 283.600072 375.401972 C 295.800878 377.502285 308.401947 377.598629 320.59793 375.70064 C 345.698797 371.899844 369.299881 360.69978 388.498065 343.699769 C 411.901429 323.000123 427.902327 294.800048 439.799318 265.198158 C 444.597659 253.198434 448.798015 240.798879 452.598108 228.500486 C 465.898433 185.800543 476.801999 141.901109 499.298741 103.401792 C 518.902012 69.801599 550.797715 39.698717 588.702194 33.49894 C 609.197618 30.199136 629.201152 33.701264 647.700081 42.801015 C 666.097739 51.698442 682.002188 65.79848 694.800978 81.700162 C 712.398108 103.599298 725.900976 129.69906 739.500293 154.898 C 745.600696 166.098064 751.797547 177.39929 758.698477 188.199524 C 778.798461 219.800565 807.5017 248.299309 840.299201 256.99923 C 844.200566 258.102376 848.299651 258.800874 852.302286 259.200705 C 868.201913 260.800026 883.600005 257.500222 898.901648 252.798604 C 923.399708 245.100667 948.100311 232.701112 968.099023 213.200958 " stroke="#b3b3b3" stroke-width="1" stroke-opacity="1" stroke-miterlimit="10"/></g><g clip-path="url(#cdf601b95b)"><path stroke-linecap="butt" transform="matrix(-0.810013, 0, 0, 0.810891, 795.15337, 2.668042)" fill="none" stroke-linejoin="miter" d="M 0.898244 34.602086 C 53.598008 33.397778 97.000083 76.598714 119.699369 123.499283 C 142.398654 170.399852 151.00191 223.399037 172.601676 271.499098 C 195.402233 322.099301 237.801238 365.90239 290.997715 376.399139 C 303.401063 378.79812 316.098581 379.299112 328.598379 377.800953 C 354.200781 374.698656 378.501121 363.999584 398.398561 347.201896 C 422.597629 326.699758 439.201334 298.302176 451.498589 268.401618 C 456.499472 256.199569 460.8011 243.800014 464.798914 231.40046 C 478.600774 188.199524 489.899781 143.697936 513.201872 105.001113 C 532.597778 72.797918 563.601327 44.000505 600.09765 37.400898 C 619.802192 33.797608 639.299368 36.500075 657.499305 44.699004 C 675.597971 52.801588 691.299877 65.79848 704.30121 80.900502 C 721.999612 101.600147 735.598928 126.500418 749.000525 150.798536 C 754.999656 161.59877 761.100059 172.399004 767.701997 182.900569 C 787.097902 213.499626 813.799823 241.502195 845.198813 251.801437 C 848.998906 253.000927 852.798999 253.998094 856.700363 254.600248 C 872.002006 257.100392 887.101106 255.197585 902.098934 251.599113 C 926.399274 245.698004 950.699613 234.401595 969.999069 215.397615 " stroke="#b3b3b3" stroke-width="1" stroke-opacity="1" stroke-miterlimit="10"/></g><g clip-path="url(#f21b0946af)"><path stroke-linecap="butt" transform="matrix(-0.810013, 0, 0, 0.810891, 795.15337, 2.668042)" fill="none" stroke-linejoin="miter" d="M 0.700523 27.800155 C 54.601078 26.200834 99.898377 69.498114 124.102268 117.198344 C 148.301336 164.898574 158.10056 218.899743 180.201861 268.199294 C 203.30141 319.497996 244.600896 365.097913 298.501451 377.198799 C 311.001249 379.997611 323.90131 380.802089 336.7001 379.698943 C 362.799214 377.299961 387.900081 367.101881 408.299057 350.400538 C 433.298652 330.100723 450.500341 301.500818 463.299131 271.301591 C 468.497735 258.998381 473.001906 246.40132 477.100991 233.900603 C 491.399563 190.299837 503.002385 145.099751 527.201453 106.200603 C 546.399638 75.399223 576.501388 47.998808 611.497928 40.801864 C 630.498392 36.899906 649.402407 38.797895 667.298529 46.100819 C 685.199474 53.297763 700.698838 65.398649 713.70017 79.599849 C 731.302123 99.100004 745.200432 122.901946 758.500757 146.19808 C 764.398617 156.598483 770.301299 166.998887 776.801965 177.201784 C 795.498615 206.798856 820.199218 234.300433 850.098425 246.097834 C 853.700798 247.499648 857.298347 248.699139 861.09844 249.4988 C 875.700827 253.000927 890.602207 252.398773 905.402314 249.89863 C 929.398839 245.698004 953.501458 235.702248 972.000387 217.098098 " stroke="#b3b3b3" stroke-width="1" stroke-opacity="1" stroke-miterlimit="10"/></g><g clip-path="url(#8db588aa89)"><path stroke-linecap="butt" transform="matrix(-0.810013, 0, 0, 0.810891, 795.15337, 2.668042)" fill="none" stroke-linejoin="miter" d="M 0.599252 20.998223 C 55.801869 19.100234 102.897943 62.498676 128.698065 110.902222 C 154.498188 159.30095 165.401754 214.50161 187.999768 265.000652 C 211.30186 316.997853 251.699547 364.399414 306.101637 378.200783 C 318.697884 381.399425 331.800488 382.598916 344.801821 381.698094 C 371.397648 379.997611 397.19777 370.300523 418.300824 353.801504 C 444.202218 333.699195 461.90062 304.998128 475.099673 274.399071 C 480.50082 261.999516 485.10144 249.301293 489.398245 236.598253 C 504.198353 192.501312 516.100167 146.699072 541.201033 107.602418 C 560.100226 78.10169 589.300178 52.199434 622.999478 44.501498 C 641.199415 40.300871 659.601895 41.3992 677.199025 47.801301 C 694.800978 54.102241 710.19907 65.201143 723.200402 78.597865 C 740.898804 96.898529 754.999656 119.500981 768.10226 141.799947 C 773.898849 151.699358 779.700259 161.801094 785.901934 171.599343 C 804.000599 200.199249 826.598613 227.098671 854.998037 240.601372 C 858.397867 242.200693 861.898967 243.597691 865.50134 244.700837 C 879.50092 249.098969 894.098485 249.89863 908.700872 248.400471 C 932.398405 246.001489 956.298481 237.200407 974.001705 219.000905 " stroke="#b3b3b3" stroke-width="1" stroke-opacity="1" stroke-miterlimit="10"/></g><g clip-path="url(#ea2f55eb6d)"><path stroke-linecap="butt" transform="matrix(-0.810013, 0, 0, 0.810891, 795.15337, 2.668042)" fill="none" stroke-linejoin="miter" d="M 0.401531 14.201109 C 56.901388 11.999634 105.80106 55.398076 133.100965 104.601282 C 160.40087 153.799671 172.500404 210.09866 195.498682 261.80201 C 218.998494 314.497709 258.499205 363.802077 313.499279 379.19795 C 326.298069 382.80124 339.501945 384.299399 352.80227 383.798407 C 379.798361 382.80124 406.500282 373.600327 428.201319 357.298814 C 454.898418 337.297668 473.199626 308.500256 486.900215 277.501369 C 492.397811 265.000652 497.302246 252.100105 501.599051 239.30072 C 516.900694 194.69797 529.101499 148.298393 555.099342 108.999415 C 573.800814 80.79934 602.098967 56.298898 634.298485 48.09997 C 651.799166 43.600675 669.598839 43.899344 686.9018 49.400622 C 704.199938 54.800739 719.40031 64.998819 732.498091 77.499536 C 750.201316 94.499547 764.499888 116.100015 777.399949 137.401814 C 783.100089 146.901395 788.800228 156.502138 794.799359 166.00172 C 812.198769 193.700803 832.800287 219.998072 859.8012 234.998932 C 862.998487 236.800576 866.301867 238.399897 869.701696 239.70055 C 883.09847 244.999505 897.401865 247.20098 911.801709 246.80115 C 935.301522 246.198996 958.801334 238.501059 975.80048 220.797732 " stroke="#b3b3b3" stroke-width="1" stroke-opacity="1" stroke-miterlimit="10"/></g><g clip-path="url(#d28209921c)"><path stroke-linecap="butt" transform="matrix(-0.810013, 0, 0, 0.810891, 795.15337, 2.668042)" fill="none" stroke-linejoin="miter" d="M 0.198988 7.399178 C 58.000907 4.797873 108.598082 48.398638 137.499042 98.300343 C 166.400002 148.202048 179.599055 205.700528 203.098867 258.502206 C 226.801223 312.002383 265.400135 363.098762 320.998194 380.098773 C 333.898255 384.101892 347.401123 385.89872 360.797897 385.701213 C 388.300345 385.397728 415.701522 376.697807 438.101815 360.598618 C 465.599441 340.799795 484.402184 311.800059 498.599485 280.497687 C 504.299625 267.900625 509.300508 254.898917 513.799857 241.902025 C 529.598212 196.798283 542.09801 149.700207 568.997651 110.300068 C 587.400131 83.400645 614.897757 60.398363 645.602314 51.698442 C 662.297646 47.001641 679.600607 46.399487 696.599753 50.999943 C 713.70017 55.499238 728.697999 64.700151 741.901874 76.401207 C 759.600276 92.201728 774.197841 112.597887 786.900181 132.998864 C 792.600321 142.098615 798.097917 151.299528 803.798056 160.500441 C 820.49821 187.202357 839.199682 212.998634 864.599541 229.598815 C 867.599107 231.597966 870.801215 233.298449 873.998502 234.998932 C 886.700842 241.299871 900.898143 244.801999 914.998995 245.500497 C 938.199816 246.699988 961.501908 240.201542 977.599255 222.801701 " stroke="#b3b3b3" stroke-width="1" stroke-opacity="1" stroke-miterlimit="10"/></g><g clip-path="url(#1732d30492)"><path stroke-linecap="butt" transform="matrix(-0.810013, 0, 0, 0.810891, 795.15337, 2.668042)" fill="none" stroke-linejoin="miter" d="M 0.0012675 0.602064 C 59.100427 -2.29791 111.501199 41.298038 141.99839 92.100566 C 172.500404 142.898276 186.798977 201.302395 210.800324 255.399909 C 234.801672 309.50224 272.402337 362.501425 328.50193 381.100757 C 368.09909 394.299972 413.801475 387.801527 448.09876 364.100746 C 487.898463 336.599169 509.898492 290.300754 526.198383 244.700837 C 542.498273 199.202082 555.200614 151.299528 583.098503 111.798227 C 611.001215 72.301743 659.29808 42.401185 706.500248 52.700426 C 745.899688 61.299185 774.598104 94.798216 796.400413 128.701893 C 818.1979 162.600754 837.299636 199.799419 869.499153 224.102353 C 901.602221 248.400471 952.401939 254.600248 979.600573 224.800852 " stroke="#b3b3b3" stroke-width="1" stroke-opacity="1" stroke-miterlimit="10"/></g><g clip-path="url(#afe627da0a)"><path stroke-linecap="butt" transform="matrix(-0.810013, 0, 0, 0.810891, 795.15337, 2.668042)" fill="none" stroke-linejoin="miter" d="M 0.49798 12.298303 C 58.700163 10.400313 109.200889 54.598416 138.000577 105.102274 C 166.800265 155.601316 179.999318 213.600788 203.798123 266.898641 C 214.899409 291.697751 229.598246 315.702017 247.49919 335.698347 C 265.800399 356.099324 287.400165 372.299674 311.898225 381.500587 C 316.899109 383.398577 322.001264 384.901553 327.199868 386.202206 C 366.80185 395.899293 410.599367 385.802375 445.099194 360.998448 C 453.697627 354.798671 461.601627 347.900395 468.99927 340.501127 C 495.898912 313.39938 514.899376 280.097856 530.099747 247.899479 C 532.101065 243.597691 534.102383 239.199558 536.098878 234.801425 C 552.799032 197.997774 568.997651 161.699932 595.299309 128.49957 C 623.698734 92.601558 669.198576 63.799328 714.698418 73.101403 C 752.598075 80.79934 780.500787 111.701882 801.89801 142.801931 C 823.300055 173.800818 842.097976 207.902003 872.898982 229.801139 C 903.699988 251.700275 951.900404 256.498238 977.801798 227.700825 " stroke="#b3b3b3" stroke-width="1" stroke-opacity="1" stroke-miterlimit="10"/></g><g clip-path="url(#e1965e3fc2)"><path stroke-linecap="butt" transform="matrix(-0.810013, 0, 0, 0.810891, 795.15337, 2.668042)" fill="none" stroke-linejoin="miter" d="M 0.999515 24.100521 C 58.401171 23.098536 107.00185 67.898793 134.099213 118.200328 C 161.201397 168.501863 173.19966 226.000343 196.902016 278.498536 C 208.398743 303.798637 224.29837 327.798086 243.400105 346.999573 C 262.902105 366.600889 285.697839 381.100757 310.600985 388.100195 C 315.698318 389.502009 320.800473 390.600338 325.999077 391.399999 C 365.499788 397.599776 407.498529 383.899569 442.099628 358.00213 C 450.698062 351.498867 458.799782 344.398267 466.597689 336.998999 C 494.799393 309.998415 516.297887 279.601682 533.89984 251.001776 C 536.301421 247.099818 538.601731 243.299022 540.902041 239.401882 C 560.201498 206.900018 579.799946 176.300961 607.500115 145.099751 C 636.299803 112.699049 679.200343 85.101128 722.90141 93.300056 C 759.301284 100.198332 786.398646 128.398408 807.400428 156.598483 C 828.40221 184.798558 846.901139 215.701101 876.400083 235.201255 C 905.899027 254.70141 951.398869 258.102376 976.099472 230.302131 " stroke="#b3b3b3" stroke-width="1" stroke-opacity="1" stroke-miterlimit="10"/></g><g clip-path="url(#7a098c3d26)"><path stroke-linecap="butt" transform="matrix(-0.810013, 0, 0, 0.810891, 795.15337, 2.668042)" fill="none" stroke-linejoin="miter" d="M 1.602322 35.801577 C 58.198628 35.700415 104.797989 81.19917 130.29912 131.298381 C 155.80025 181.40241 166.400002 238.399897 190.102357 290.09843 C 201.898077 315.899524 218.998494 340.000135 239.402292 358.300799 C 260.10026 377.001293 284.101607 389.800678 309.298923 394.598641 C 314.401078 395.600625 319.599682 396.197962 324.798286 396.597792 C 364.298997 399.300259 404.397692 382.097924 439.201334 355.000995 C 447.901039 348.199063 456.20048 341.002119 464.20093 333.598034 C 493.598602 306.698611 517.79767 279.298196 537.801204 254.200418 C 540.501778 250.799452 543.10108 247.499648 545.700382 244.098683 C 567.59914 215.898607 590.399697 191.099498 619.70092 161.801094 C 648.60188 132.897702 689.100839 106.39811 730.998309 113.701033 C 765.898399 119.799649 792.200057 145.302074 812.801575 170.698521 C 833.398271 196.099784 851.598208 223.798868 879.799912 240.798879 C 908.001616 257.79889 950.902156 260.000365 974.300697 233.100942 " stroke="#b3b3b3" stroke-width="1" stroke-opacity="1" stroke-miterlimit="10"/></g><g clip-path="url(#dbe1e7d014)"><path stroke-linecap="butt" transform="matrix(-0.810013, 0, 0, 0.810891, 795.15337, 2.668042)" fill="none" stroke-linejoin="miter" d="M 2.099034 47.497816 C 57.798364 48.398638 102.497679 94.499547 126.301306 144.30009 C 150.100111 194.100633 159.600343 250.69829 183.201427 301.60198 C 195.402233 328.00041 213.698619 351.999859 235.298385 369.500863 C 257.201965 387.300534 282.500553 398.399437 308.001683 401.000742 C 313.200287 401.501734 318.398891 401.69924 323.602318 401.598079 C 363.001757 400.798418 401.301678 379.997611 436.298218 351.802353 C 444.997922 344.701753 453.499907 337.39883 461.90062 329.999561 C 492.600354 303.201301 519.398724 278.700859 541.799018 257.201553 C 544.798583 254.30158 547.798149 251.401606 550.701266 248.597977 C 575.300597 224.69969 600.999448 205.801689 632.099446 178.300113 C 661.000406 152.797687 699.300326 127.598747 739.399021 133.899687 C 772.900601 139.102297 798.401731 161.9986 818.501715 184.601052 C 838.698147 207.198687 856.49782 231.699128 883.498734 246.300158 C 910.398375 260.901188 950.598342 261.700848 972.902186 235.798592 " stroke="#b3b3b3" stroke-width="1" stroke-opacity="1" stroke-miterlimit="10"/></g><g clip-path="url(#af37e076a8)"><path stroke-linecap="butt" transform="matrix(-0.810013, 0, 0, 0.810891, 795.15337, 2.668042)" fill="none" stroke-linejoin="miter" d="M 2.60057 59.198872 C 57.499372 61.000517 100.202192 107.698762 122.399942 157.398144 C 144.597692 207.102342 152.800685 263.001501 176.300497 313.201874 C 188.901566 340.101297 208.398743 364.100746 231.1993 380.802089 C 254.298849 397.8021 280.798227 407.099357 306.699621 407.499188 C 311.999497 407.60035 317.198101 407.301681 322.401527 406.699527 C 361.800967 402.397739 398.302112 378.099622 433.298652 348.700055 C 442.099628 341.300787 450.698062 333.800357 459.499038 326.502251 C 491.500835 299.800335 520.802058 278.199867 545.700382 260.400195 C 548.99894 258.001214 552.30232 255.602232 555.499606 253.299596 C 582.69824 233.601935 611.198936 220.600226 644.300252 195.001456 C 672.90222 172.798834 709.200822 149.001708 747.602014 154.300664 C 779.598988 158.698796 804.299591 178.902267 823.999311 198.70109 C 843.800302 218.499913 861.300983 239.801712 886.999834 251.998943 C 912.602236 264.200991 950.198078 263.699999 971.19986 238.698566 " stroke="#b3b3b3" stroke-width="1" stroke-opacity="1" stroke-miterlimit="10"/></g><g clip-path="url(#68c8c4bb4a)"><path stroke-linecap="butt" transform="matrix(-0.810013, 0, 0, 0.810891, 795.15337, 2.668042)" fill="none" stroke-linejoin="miter" d="M 3.102105 70.899928 C 57.20038 73.602395 97.901882 120.99914 118.498578 170.501014 C 139.100096 219.998072 146.001026 275.401055 169.399567 324.801768 C 182.4009 352.202183 203.098867 376.201632 227.100215 392.098497 C 251.501826 408.101342 279.100724 415.799278 305.30111 414.098795 C 310.600985 413.698965 315.900861 413.000466 321.099465 411.998482 C 360.397633 404.199384 395.100003 376.297977 430.299086 345.901244 C 439.100063 338.299652 447.901039 330.601715 457.102279 323.298792 C 490.300044 296.698037 522.301841 278.098705 549.500475 263.801161 C 553.199296 261.898354 556.700397 260.000365 560.201498 258.19872 C 589.999433 242.79803 621.200703 235.601086 656.399786 211.900305 C 684.500219 192.901142 719.101317 170.602176 755.59764 174.797985 C 786.099654 178.300113 809.99973 195.902278 829.299186 212.902289 C 848.598643 229.801139 865.901603 248.000641 890.201943 257.697728 C 914.502283 267.500795 949.402374 265.597989 969.198542 241.598539 " stroke="#b3b3b3" stroke-width="1" stroke-opacity="1" stroke-miterlimit="10"/></g><g clip-path="url(#57fe23d109)"><path stroke-linecap="butt" transform="matrix(-0.810013, 0, 0, 0.810891, 795.15337, 2.668042)" fill="none" stroke-linejoin="miter" d="M 3.598817 82.600984 C 56.901388 86.300619 95.601572 134.299517 114.602036 183.497906 C 133.597678 232.701112 139.297817 287.699448 162.498637 336.300501 C 175.900234 364.298252 197.798992 388.297701 223.102402 403.298561 C 248.699981 418.501745 277.600941 424.398037 304.100319 420.500896 C 309.501466 419.701236 314.801342 418.501745 319.999946 416.998769 C 359.298114 405.70236 392.100438 374.197664 427.502064 342.697785 C 436.399489 334.802342 445.398186 326.902081 454.801969 319.70032 C 489.301796 293.200727 523.801624 277.501369 553.498288 266.802297 C 557.500924 265.400482 561.402288 263.998668 565.202381 262.60167 C 597.599619 251.401606 631.298919 249.999792 668.798312 228.298162 C 696.300761 212.300135 729.199534 191.701652 763.998353 194.900294 C 793.000584 197.597944 816.100133 212.497642 834.999326 226.597679 C 853.898518 240.697717 870.801215 255.698577 893.900764 263.001501 C 916.899042 270.299607 949.199831 267.100965 967.69876 244.098683 " stroke="#b3b3b3" stroke-width="1" stroke-opacity="1" stroke-miterlimit="10"/></g><g clip-path="url(#1cd93f3556)"><path stroke-linecap="butt" transform="matrix(-0.810013, 0, 0, 0.810891, 795.15337, 2.668042)" fill="none" stroke-linejoin="miter" d="M 4.100352 94.302041 C 56.501125 98.89768 93.301262 147.498732 110.5994 196.600777 C 127.902361 245.698004 132.401709 299.997841 155.597707 347.900395 C 169.399567 376.399139 192.397845 400.49975 218.998494 414.599787 C 245.700415 428.902149 275.898615 433.097958 302.798257 426.999342 C 308.300675 425.69869 313.600551 424.099369 318.799155 422.100217 C 358.000874 407.301681 388.999601 372.299674 424.497676 339.600305 C 433.399923 331.401376 442.601163 323.399954 452.400388 316.101847 C 488.101006 289.6986 525.301407 276.899215 557.399652 269.798615 C 561.70128 268.801448 565.901637 267.900625 570.000722 267.100965 C 605.098533 260.197872 641.001694 264.398498 680.999118 244.801999 C 707.701039 231.699128 739.201301 212.902289 772.201345 215.098947 C 799.698971 217.001754 821.997993 229.198985 840.501744 240.500211 C 859.000673 251.801437 875.599556 263.598837 897.401865 268.497962 C 919.199352 273.401904 948.698295 268.897792 966.097705 246.80115 " stroke="#b3b3b3" stroke-width="1" stroke-opacity="1" stroke-miterlimit="10"/></g><g clip-path="url(#3a4c96dcc0)"><path stroke-linecap="butt" transform="matrix(-0.810013, 0, 0, 0.810891, 795.15337, 2.668042)" fill="none" stroke-linejoin="miter" d="M 4.601887 106.099441 C 56.202132 111.701882 91.000952 160.900271 106.698036 209.69883 C 122.399942 258.502206 125.6985 312.402213 148.7016 359.500289 C 162.898901 388.500025 187.097969 412.600636 214.899409 425.901013 C 242.89857 439.398897 274.201112 441.797879 301.399745 433.59895 C 306.998613 431.898467 312.298489 429.798154 317.501915 427.399172 C 356.698812 409.098509 385.802314 370.49803 421.49811 336.700331 C 430.501629 328.197917 439.799318 320.10015 449.998806 312.802044 C 487.001486 286.499958 526.699918 276.701708 561.301017 273.098419 C 565.901637 272.602244 570.400985 272.202413 574.900334 271.898928 C 612.60227 269.398785 650.699647 278.802021 693.199923 261.599686 C 719.000046 251.199283 749.101796 234.401595 780.298244 235.601086 C 806.402181 236.598253 827.799404 246.198996 845.898069 254.70141 C 864.001557 263.199007 880.301447 271.797766 900.801694 274.201565 C 921.301941 276.701708 948.201583 270.800599 964.29893 249.701123 " stroke="#b3b3b3" stroke-width="1" stroke-opacity="1" stroke-miterlimit="10"/></g><g clip-path="url(#b4a6481014)"><path stroke-linecap="butt" transform="matrix(-0.810013, 0, 0, 0.810891, 795.15337, 2.668042)" fill="none" stroke-linejoin="miter" d="M 5.0986 117.800498 C 55.898318 124.298943 88.801913 174.200648 102.801494 222.801701 C 116.801074 271.397936 118.898841 324.801768 141.80067 371.100184 C 156.398234 400.600912 181.798093 424.701523 210.800324 437.202239 C 240.000276 449.799301 272.498786 450.497799 300.097683 440.102213 C 305.701373 437.900738 311.097698 435.400595 316.301124 432.500621 C 355.401572 410.69783 382.797926 368.498878 418.599816 333.598034 C 427.598513 324.801768 437.200016 316.501678 447.698496 309.299916 C 485.901967 282.99783 528.199701 276.200716 565.29883 276.200716 C 570.198442 276.200716 575.098054 276.301878 579.799946 276.499384 C 620.101184 278.199867 660.30115 292.598573 705.502001 278.199867 C 730.299053 270.299607 759.098741 255.602232 788.597685 255.799739 C 813.201839 256.002063 833.899806 262.900339 851.501759 268.599124 C 869.200161 274.297909 885.201059 279.698026 904.399244 279.698026 C 923.602251 279.698026 947.801319 272.602244 962.697876 252.398773 " stroke="#b3b3b3" stroke-width="1" stroke-opacity="1" stroke-miterlimit="10"/></g><g clip-path="url(#91a8895cd0)"><path stroke-linecap="butt" transform="matrix(-0.810013, 0, 0, 0.810891, 795.15337, 2.668042)" fill="none" stroke-linejoin="miter" d="M 5.600135 129.501554 C 55.498054 136.900822 86.501603 187.399864 98.90013 235.798592 C 111.298656 284.202138 112.200454 336.998999 134.89974 382.598916 C 149.90239 412.701798 176.401769 436.802409 206.70124 448.402303 C 237.101982 460.098542 270.897731 459.19772 298.699172 446.499497 C 304.399311 443.898192 309.800458 440.901873 314.999062 437.500908 C 354.09951 412.301968 379.60064 366.499727 415.498979 330.500554 C 424.598947 321.400803 434.301722 312.99955 445.099194 305.797788 C 484.599905 279.601682 529.501763 275.598562 568.901202 279.298196 C 574.201078 279.799188 579.298411 280.401342 584.400566 281.099841 C 627.402377 287.102112 669.50239 306.101274 717.500263 294.800048 C 741.400339 289.197607 768.897965 276.899215 796.598134 276.099554 C 819.697683 275.401055 839.599946 279.698026 856.801635 282.501655 C 873.998502 285.401629 889.700408 287.598287 907.697802 285.199305 C 925.598747 282.800324 947.198513 274.297909 960.79783 255.202402 " stroke="#b3b3b3" stroke-width="1" stroke-opacity="1" stroke-miterlimit="10"/></g><g clip-path="url(#6eb9565b7c)"><path stroke-linecap="butt" transform="matrix(-0.810013, 0, 0, 0.810891, 795.15337, 2.668042)" fill="none" stroke-linejoin="miter" d="M 6.10167 141.197793 C 55.199062 149.599045 84.201293 200.700241 94.902316 248.901463 C 105.598517 297.097868 105.400796 349.398554 127.902361 394.097649 C 143.300453 424.701523 171.000621 448.802134 202.500883 459.602368 C 234.102416 470.498946 269.098956 467.801296 297.30066 452.997943 C 303.102071 450.001624 308.498396 446.499497 313.701822 442.698701 C 352.700998 413.997633 376.398531 364.601738 412.499413 327.499418 C 421.599381 318.100999 431.499877 309.598584 442.697612 302.40164 C 483.399114 276.301878 530.900274 275.198732 572.797744 282.501655 C 578.401434 283.498822 583.899031 284.601968 589.198906 285.801459 C 634.80002 296.100701 678.901351 319.098166 729.701069 311.501391 C 752.699346 307.999263 778.798461 298.302176 804.699855 296.500531 C 826.299621 295.002372 845.401356 296.601693 862.19796 296.601693 C 878.999385 296.601693 894.402299 295.700871 911.001182 290.801746 C 927.600064 285.998966 946.499257 276.099554 958.999055 258.001214 " stroke="#b3b3b3" stroke-width="1" stroke-opacity="1" stroke-miterlimit="10"/></g><g clip-path="url(#0b570a62d4)"><path stroke-linecap="butt" transform="matrix(-0.810013, 0, 0, 0.810891, 795.15337, 2.668042)" fill="none" stroke-linejoin="miter" d="M 6.598383 152.898849 C 54.90007 162.200924 81.900983 214.000618 91.102223 261.999516 C 100.298641 309.998415 98.798858 361.701764 121.199151 405.70236 C 137.098778 436.802409 165.898466 460.999365 198.599519 470.898776 C 231.401843 480.89935 267.599174 476.501217 296.201141 459.501206 C 301.997729 455.999078 307.500148 452.101938 312.698752 447.800149 C 351.697928 415.601772 373.500237 362.698931 409.798839 324.401938 C 419.000079 314.700033 429.001847 306.000112 440.599846 298.899512 C 482.598587 272.900912 532.699049 274.798901 576.998101 285.700297 C 582.900783 287.102112 588.702194 288.701433 594.402333 290.401915 C 642.597926 304.998128 688.898296 331.497721 742.302138 328.101572 C 764.499888 326.699758 789.200491 319.599158 813.298288 316.800346 C 833.398271 314.401365 851.69948 313.39938 868.100642 310.600569 C 884.501804 307.801757 899.600903 303.702293 914.897724 296.399369 C 930.199366 289.101263 946.499257 278.002361 957.701815 260.800026 " stroke="#b3b3b3" stroke-width="1" stroke-opacity="1" stroke-miterlimit="10"/></g><g clip-path="url(#04ff40160a)"><path stroke-linecap="butt" transform="matrix(-0.810013, 0, 0, 0.810891, 795.15337, 2.668042)" fill="none" stroke-linejoin="miter" d="M 7.20119 164.599905 C 54.601078 174.899147 79.701945 227.199833 87.200859 275.001225 C 94.699773 322.7978 92.100471 373.898995 114.298221 417.201093 C 130.598112 448.802134 160.502142 472.999089 194.500434 482.09884 C 228.498726 491.198591 265.998119 485.099976 294.797807 465.89849 C 300.70049 462.001349 306.198086 457.598399 311.401512 452.800436 C 350.400688 417.099931 370.298129 360.598618 406.698002 321.198479 C 415.899242 311.197905 426.200001 302.40164 438.101815 295.30104 C 481.397796 269.398785 534.001111 274.201565 580.798193 288.701433 C 586.999868 290.599422 593.100271 292.699735 599.099402 294.90121 C 650.000391 313.799211 698.601071 343.299939 754.401672 344.600591 C 775.900167 345.101583 798.999716 340.799795 821.400009 336.897837 C 840.101481 333.699195 857.50089 329.999561 873.501789 324.401938 C 889.497865 318.799497 904.201523 311.501391 918.297553 301.799486 C 932.301956 292.097581 945.901273 279.601682 955.898217 263.401331 " stroke="#b3b3b3" stroke-width="1" stroke-opacity="1" stroke-miterlimit="10"/></g><g clip-path="url(#3e962ec32a)"><path stroke-linecap="butt" transform="matrix(-0.810013, 0, 0, 0.810891, 795.15337, 2.668042)" fill="none" stroke-linejoin="miter" d="M 7.697902 176.300961 C 54.302086 187.501026 77.401635 240.500211 83.299495 288.099279 C 89.100906 335.698347 85.300813 386.29855 107.402114 428.800987 C 124.102268 460.898203 155.202266 485.099976 190.401349 493.400066 C 225.600432 501.700157 264.300616 493.799897 293.500568 472.401753 C 355.999556 426.700674 368.701897 330.69806 435.700233 291.900075 C 486.099688 262.698015 550.402273 276.499384 603.897742 299.598011 C 657.398034 322.701455 708.699287 354.798671 766.597655 361.301934 C 840.299201 369.500863 917.198034 330.500554 954.099443 266.200143 " stroke="#b3b3b3" stroke-width="1" stroke-opacity="1" stroke-miterlimit="10"/></g></g></g></g></svg>