<svg xmlns="http://www.w3.org/2000/svg" xmlns:xlink="http://www.w3.org/1999/xlink" width="1080" zoomAndPan="magnify" viewBox="0 0 810 809.999993" height="1080" preserveAspectRatio="xMidYMid meet" version="1.0"><defs><clipPath id="0f55c5f5da"><path d="M 0 200.398438 L 776 200.398438 L 776 513 L 0 513 Z M 0 200.398438 " clip-rule="nonzero"/></clipPath><clipPath id="ff7cf23e3d"><path d="M 0 200.398438 L 778 200.398438 L 778 513 L 0 513 Z M 0 200.398438 " clip-rule="nonzero"/></clipPath><clipPath id="51eeb34064"><path d="M 0 200.398438 L 779 200.398438 L 779 514 L 0 514 Z M 0 200.398438 " clip-rule="nonzero"/></clipPath><clipPath id="44bb41811b"><path d="M 0 200.398438 L 781 200.398438 L 781 514 L 0 514 Z M 0 200.398438 " clip-rule="nonzero"/></clipPath><clipPath id="c388486406"><path d="M 0 214 L 788.246094 214 L 788.246094 519 L 0 519 Z M 0 214 " clip-rule="nonzero"/></clipPath><clipPath id="d255dfb873"><path d="M 0 217 L 788.246094 217 L 788.246094 520 L 0 520 Z M 0 217 " clip-rule="nonzero"/></clipPath><clipPath id="b02269da33"><path d="M 0 219 L 788.246094 219 L 788.246094 522 L 0 522 Z M 0 219 " clip-rule="nonzero"/></clipPath><clipPath id="fd5dfc776c"><path d="M 0 213 L 788.246094 213 L 788.246094 523 L 0 523 Z M 0 213 " clip-rule="nonzero"/></clipPath><clipPath id="f129773e3a"><path d="M 0 208 L 788.246094 208 L 788.246094 524 L 0 524 Z M 0 208 " clip-rule="nonzero"/></clipPath><clipPath id="5831dbf54a"><path d="M 0 202 L 788.246094 202 L 788.246094 526 L 0 526 Z M 0 202 " clip-rule="nonzero"/></clipPath><clipPath id="6a8ca51f91"><path d="M 0 200.398438 L 788.246094 200.398438 L 788.246094 527 L 0 527 Z M 0 200.398438 " clip-rule="nonzero"/></clipPath><clipPath id="3fd4e5f7dd"><path d="M 0 200.398438 L 788.246094 200.398438 L 788.246094 529 L 0 529 Z M 0 200.398438 " clip-rule="nonzero"/></clipPath><clipPath id="893dc92781"><path d="M 0 201 L 788.246094 201 L 788.246094 531 L 0 531 Z M 0 201 " clip-rule="nonzero"/></clipPath><clipPath id="952abbdfae"><path d="M 0 210 L 788.246094 210 L 788.246094 533 L 0 533 Z M 0 210 " clip-rule="nonzero"/></clipPath><clipPath id="6065f51892"><path d="M 0 220 L 788.246094 220 L 788.246094 536 L 0 536 Z M 0 220 " clip-rule="nonzero"/></clipPath><clipPath id="595c175c10"><path d="M 0 229 L 788.246094 229 L 788.246094 540 L 0 540 Z M 0 229 " clip-rule="nonzero"/></clipPath><clipPath id="708e55660f"><path d="M 0 239 L 788.246094 239 L 788.246094 545 L 0 545 Z M 0 239 " clip-rule="nonzero"/></clipPath><clipPath id="b73a9e1ae1"><path d="M 0 248 L 788.246094 248 L 788.246094 551 L 0 551 Z M 0 248 " clip-rule="nonzero"/></clipPath><clipPath id="2ac29fca6e"><path d="M 0 258 L 788.246094 258 L 788.246094 557 L 0 557 Z M 0 258 " clip-rule="nonzero"/></clipPath><clipPath id="d57547c7b7"><path d="M 0 334 L 779 334 L 779 609.898438 L 0 609.898438 Z M 0 334 " clip-rule="nonzero"/></clipPath></defs><g clip-path="url(#0f55c5f5da)"><path stroke-linecap="butt" transform="matrix(0.810013, 0, 0, 0.810891, -6.158717, 202.668041)" fill="none" stroke-linejoin="miter" d="M 951.101655 195.998624 C 924.100742 219.400736 896.998557 242.798031 869.997644 266.098982 C 852.800777 280.99868 835.001104 296.201864 813.401338 303.10014 C 761.998813 319.599159 706.998739 283.498823 677.499795 238.298737 C 648.000852 193.09865 635.202062 139.102298 610.101195 91.300906 C 585.000328 43.499515 540.002021 -0.900911 486.101466 0.799571 C 435.398197 2.29773 394.199983 44.597844 373.699736 90.901076 C 353.199489 137.199492 347.798342 188.700518 333.900033 237.397914 C 320.001724 286.100129 294.201602 335.698348 248.397945 357.602301 C 194.598661 383.398578 122.199177 357.602301 96.698047 303.702294 C 79.698901 267.601958 82.698466 225.701676 75.402095 186.397881 C 68.100902 147.200065 42.701043 104.697628 2.800068 102.602132 " stroke="#b3b3b3" stroke-width="1" stroke-opacity="1" stroke-miterlimit="10"/></g><g clip-path="url(#ff7cf23e3d)"><path stroke-linecap="butt" transform="matrix(0.810013, 0, 0, 0.810891, -6.158717, 202.668041)" fill="none" stroke-linejoin="miter" d="M 2.501076 95.800201 C 43.598019 97.601846 70.897924 140.099465 79.698901 180.101759 C 88.499877 220.099235 86.599831 263.199008 104.100512 300.397673 C 125.001022 344.899261 175.699469 371.899845 223.702164 367.699219 C 234.899899 366.702052 245.899914 364.100747 256.200673 359.500291 C 277.501447 350.198216 295.002129 334.999849 308.900438 316.501679 C 325.701863 294.299057 337.299862 267.298473 345.401583 240.39905 C 348.700141 229.300148 351.598435 218.100084 354.299008 206.798858 C 363.500248 167.89971 370.897891 128.398409 387.501596 92.201729 C 408.001843 47.300311 448.100538 6.30085 497.400473 4.301699 C 523.899851 3.198553 548.301462 13.300288 569.298422 29.601801 C 589.798669 45.599828 606.899086 67.397802 619.398884 90.19776 C 636.798294 122.001125 648.502387 156.998315 663.601486 190.00117 C 670.299873 204.698545 677.601067 219.102068 686.498492 232.701113 C 712.100894 272.101253 756.698938 304.598299 801.499524 301.100989 C 806.900671 300.701158 812.398268 299.699174 817.698143 298.201015 C 838.699925 292.198744 856.200606 278.30103 873.199753 264.600823 C 899.998123 243.000355 926.700044 220.797733 953.001702 197.90143 " stroke="#b3b3b3" stroke-width="1" stroke-opacity="1" stroke-miterlimit="10"/></g><g clip-path="url(#51eeb34064)"><path stroke-linecap="butt" transform="matrix(0.810013, 0, 0, 0.810891, -6.158717, 202.668041)" fill="none" stroke-linejoin="miter" d="M 2.399805 88.99827 C 44.79881 90.400084 73.902312 132.998865 84.198249 173.800819 C 94.499008 214.597956 93.799753 258.699714 111.801969 297.199031 C 132.9002 342.399117 182.600399 371.297691 231.30235 368.701203 C 242.601356 368.099049 253.799092 365.80123 264.398843 361.600604 C 286.201152 353.001845 304.401089 338.299653 318.998654 319.897827 C 336.600607 297.902347 348.801412 270.699438 357.298574 243.501347 C 360.799675 232.301283 363.79924 220.898895 366.601085 209.501325 C 376.299038 170.101185 384.198216 130.098892 401.501176 93.598726 C 422.097872 50.200284 461.000599 10.597821 508.902023 8.097678 C 534.702145 6.70068 558.50095 15.997938 579.198917 31.398628 C 599.501444 46.50065 616.399318 67.301457 628.899116 89.301755 C 646.298526 119.900812 658.301611 153.698511 673.101718 185.800544 C 679.698834 200.098088 686.898756 214.101781 695.502012 227.300997 C 720.400335 265.699152 763.098333 297.700023 806.297865 295.802034 C 811.501291 295.59971 816.801167 294.800049 821.999771 293.499397 C 842.302297 288.397948 859.600436 275.902049 876.401861 263.30017 C 902.901239 243.400185 929.400618 222.498216 954.901748 200.001744 " stroke="#b3b3b3" stroke-width="1" stroke-opacity="1" stroke-miterlimit="10"/></g><g clip-path="url(#44bb41811b)"><path stroke-linecap="butt" transform="matrix(0.810013, 0, 0, 0.810891, -6.158717, 202.668041)" fill="none" stroke-linejoin="miter" d="M 2.202084 82.201155 C 45.898329 83.299484 76.800607 125.999428 88.697598 167.49988 C 100.599411 209.000333 100.999675 254.301581 119.402155 294.000389 C 140.698106 339.797812 189.501329 370.599193 238.699992 369.69837 C 250.100271 369.500864 261.500549 367.501713 272.399292 363.700917 C 294.698314 355.800657 313.602329 341.599457 328.899149 323.399955 C 347.301629 301.500819 360.100419 274.297911 369.099116 246.699989 C 372.797937 235.398763 376.000046 223.900031 378.89834 212.401298 C 389.097828 172.601329 397.498541 132.001698 415.500757 95.198047 C 436.001004 53.20142 473.90066 14.899609 520.302301 11.802129 C 545.301897 10.101646 568.599166 18.599243 588.998141 33.099111 C 609.001676 47.300311 625.798279 67.200295 638.298076 88.299771 C 655.798758 117.699337 667.898292 150.398707 682.60195 181.498756 C 689.097794 195.300125 696.201267 208.899171 704.60198 221.799718 C 728.801048 259.200706 769.497727 290.700585 811.298748 290.300755 C 816.400903 290.199593 821.401787 289.698601 826.49912 288.600272 C 846.198839 284.500808 863.197985 273.300744 879.80169 261.802011 C 906.002077 243.597692 932.298912 223.900031 956.999515 201.798571 " stroke="#b3b3b3" stroke-width="1" stroke-opacity="1" stroke-miterlimit="10"/></g><path stroke-linecap="butt" transform="matrix(0.810013, 0, 0, 0.810891, -6.158717, 202.668041)" fill="none" stroke-linejoin="miter" d="M 1.999541 75.399224 C 46.997848 76.198885 79.597629 118.898828 93.100497 161.198941 C 106.598543 203.499054 108.199597 249.898631 127.00234 290.700585 C 148.500835 337.201324 196.402259 369.799532 246.198906 370.599193 C 257.801728 370.801517 269.298455 369.101034 280.399742 365.598906 C 303.099027 358.401962 322.900018 344.701754 338.799645 326.699759 C 357.99783 304.998129 371.399426 277.597714 380.798387 249.701125 C 384.699751 238.298737 387.998309 226.597681 391.099146 214.997786 C 401.800168 174.701642 410.697594 133.601019 429.297794 96.402355 C 449.701592 55.797908 486.50173 18.801567 531.500037 15.299439 C 555.800376 13.40145 578.499662 20.998225 598.498373 34.602087 C 618.198093 47.897647 634.801798 66.800465 647.499316 87.10028 C 664.999998 115.199194 677.398524 146.800235 691.798368 176.999461 C 698.197763 190.401 705.199964 203.600216 713.301685 216.202094 C 736.897947 252.601098 775.501681 283.599985 815.798097 284.799476 C 820.697709 284.900638 825.602143 284.60197 830.501755 283.802309 C 849.598669 280.59885 866.298823 270.699438 882.598713 260.400197 C 908.500107 244.002339 934.49795 225.499352 958.398026 203.797722 " stroke="#b3b3b3" stroke-width="1" stroke-opacity="1" stroke-miterlimit="10"/><path stroke-linecap="butt" transform="matrix(0.810013, 0, 0, 0.810891, -6.158717, 202.668041)" fill="none" stroke-linejoin="miter" d="M 1.801821 68.60211 C 48.10219 69.00194 82.500746 111.798228 97.498574 154.898002 C 112.501225 197.997775 115.298247 245.399337 134.597703 287.501943 C 156.400013 334.701181 203.298366 369.202196 253.69782 371.500015 C 265.401913 372.001007 277.197633 370.801517 288.501462 367.598057 C 311.702283 361.099612 332.197707 347.900396 348.801412 330.100725 C 368.901395 308.601419 382.698433 280.99868 392.7002 252.798605 C 396.799285 241.19871 400.300386 229.497654 403.497672 217.700253 C 414.70023 176.898299 424.09919 135.20034 443.398646 97.799352 C 463.701173 58.697881 499.49824 23.002193 543.001587 18.897912 C 566.501399 16.701254 588.699149 23.498368 608.398869 36.201408 C 627.900868 48.600963 644.30203 66.598141 656.999548 86.001951 C 674.50023 112.901374 687.101299 143.399269 701.399871 172.500167 C 707.799266 185.501876 714.598925 198.301261 722.401653 210.498492 C 745.298659 246.001491 781.901076 276.398224 820.697709 279.100691 C 825.3996 279.399359 830.101492 279.298197 834.798561 278.700861 C 853.201041 276.499386 869.698652 267.900627 885.800822 258.699714 C 911.398401 244.002339 937.198524 226.698843 960.298073 205.498205 " stroke="#b3b3b3" stroke-width="1" stroke-opacity="1" stroke-miterlimit="10"/><path stroke-linecap="butt" transform="matrix(0.810013, 0, 0, 0.810891, -6.158717, 202.668041)" fill="none" stroke-linejoin="miter" d="M 1.599278 61.800179 C 49.100438 61.90134 85.39904 104.79879 101.901473 148.60188 C 118.399085 192.400152 122.40172 241.001204 142.197889 284.298484 C 164.197919 332.201038 210.199296 368.49888 261.100285 372.501999 C 272.900827 373.398005 284.89909 372.501999 296.501911 369.602026 C 320.199445 363.802079 341.500219 351.099038 358.701908 333.400528 C 379.602418 312.098729 394.002262 284.399646 404.399471 255.79974 C 408.599827 244.098684 412.298648 232.200121 415.698477 220.301559 C 427.397748 178.998613 437.201795 136.799661 457.301778 99.100005 C 477.49821 61.400348 512.200581 27.101657 554.401865 22.501201 C 577.197599 20.001058 598.802188 25.998511 618.198093 37.800729 C 637.4011 49.400624 653.700991 66.299473 666.398509 84.898805 C 683.89919 110.598737 696.69798 139.901959 710.900103 168.102034 C 717.198227 180.597934 723.800165 193.002306 731.501622 204.900868 C 753.699372 239.401883 788.300471 269.398786 825.602143 273.599412 C 830.101492 274.100404 834.60084 274.201566 839.20146 273.89808 C 857.001134 272.602245 873.199753 265.400483 889.099379 257.297899 C 914.397967 244.40217 939.899097 228.298164 962.299391 207.502174 " stroke="#b3b3b3" stroke-width="1" stroke-opacity="1" stroke-miterlimit="10"/><path stroke-linecap="butt" transform="matrix(0.810013, 0, 0, 0.810891, -6.158717, 202.668041)" fill="none" stroke-linejoin="miter" d="M 1.498006 54.998247 C 50.301228 54.800741 88.398606 97.69819 106.502093 142.30094 C 124.600759 186.898873 129.698091 236.598254 149.899346 281.099842 C 172.101919 329.700894 217.201498 367.901543 268.700471 373.499166 C 280.698734 374.799819 292.798268 374.197665 304.59881 371.702339 C 328.797878 366.499729 350.797908 354.398842 368.698852 336.897839 C 390.39989 315.798363 405.397718 287.901773 416.301284 258.998382 C 420.699361 247.200981 424.600725 235.201257 428.101826 223.10037 C 440.297809 181.402411 450.502119 138.601306 471.397807 100.598164 C 491.401342 64.300322 525.201913 31.302284 565.898593 26.200835 C 587.898622 23.402023 609.001676 28.599816 628.098589 39.501212 C 646.997781 50.301446 663.201223 66.299473 676.000012 83.997983 C 693.601965 108.40208 706.598476 136.6985 720.501607 163.901408 C 726.698459 176.002294 733.199125 188.002019 740.60159 199.500751 C 762.100085 232.999782 794.699866 262.50051 830.598204 268.199295 C 834.899832 268.897794 839.297909 269.201279 843.700809 269.100117 C 860.897675 268.801449 876.802125 262.90034 892.499209 255.900902 C 917.600076 244.700838 942.802214 229.902302 964.40198 209.501325 " stroke="#b3b3b3" stroke-width="1" stroke-opacity="1" stroke-miterlimit="10"/><g clip-path="url(#c388486406)"><path stroke-linecap="butt" transform="matrix(0.810013, 0, 0, 0.810891, -6.158717, 202.668041)" fill="none" stroke-linejoin="miter" d="M 1.300286 48.201133 C 51.400748 47.598979 91.301722 90.698752 110.90017 136.000001 C 130.498619 181.301249 136.801564 232.098959 157.499532 277.800038 C 179.899825 327.099589 224.097605 367.101882 276.199385 374.298827 C 288.298919 375.99931 300.600996 375.700641 312.70053 373.600328 C 337.401134 369.101034 360.201691 357.399978 378.70062 340.197643 C 401.298633 319.300491 416.797997 291.201577 428.101826 261.999518 C 432.697624 250.100955 436.700259 237.898907 440.399081 225.701676 C 453.19787 183.497907 463.797622 140.099465 485.40221 101.898817 C 505.198379 66.997972 538.101975 35.401748 577.400142 29.799307 C 598.599645 26.701827 619.201163 31.09996 637.999084 41.100533 C 656.700556 50.898783 672.701455 65.899643 685.500245 82.702148 C 703.102197 105.901936 716.301251 132.998865 730.098288 159.19979 C 736.198691 170.900846 742.598086 182.50074 749.798008 193.700804 C 770.602069 226.19785 801.200532 255.202403 835.599088 262.50051 C 839.698173 263.401332 843.898529 263.902324 848.200157 263.998669 C 864.697768 264.600823 880.399675 260.000366 895.899038 254.200419 C 920.700913 244.802 945.599237 231.101792 966.499747 211.201808 " stroke="#b3b3b3" stroke-width="1" stroke-opacity="1" stroke-miterlimit="10"/></g><g clip-path="url(#d255dfb873)"><path stroke-linecap="butt" transform="matrix(0.810013, 0, 0, 0.810891, -6.158717, 202.668041)" fill="none" stroke-linejoin="miter" d="M 1.097743 41.399202 C 52.500267 40.498379 94.098745 83.598153 115.298247 129.800224 C 136.49775 176.002294 143.900215 227.801989 165.099717 274.697741 C 187.697731 324.700608 230.998535 366.499729 283.60185 375.401973 C 295.797833 377.502286 308.398903 377.598631 320.599708 375.700641 C 345.700575 371.899845 369.301659 360.699781 388.499844 343.69977 C 411.898385 323.000125 427.899283 294.800049 439.801097 265.19816 C 444.599437 253.198435 448.799794 240.79888 452.599886 228.500487 C 465.900211 185.800544 476.798954 141.90111 499.300519 103.401793 C 518.898967 69.801601 550.799493 39.698719 588.699149 33.498941 C 609.199396 30.199137 629.198108 33.701265 647.701859 42.801016 C 666.099517 51.698443 681.999144 65.798481 694.797934 81.700163 C 712.399886 103.599299 725.897932 129.699062 739.502071 154.898002 C 745.597651 166.098066 751.799326 177.399292 758.700256 188.199525 C 778.800239 219.800566 807.498656 248.29931 840.30098 256.999231 C 844.202344 258.102377 848.301429 258.800876 852.299242 259.200706 C 868.198869 260.800027 883.601783 257.500223 898.898604 252.798605 C 923.401486 245.100668 948.10209 232.701113 968.100801 213.200959 " stroke="#b3b3b3" stroke-width="1" stroke-opacity="1" stroke-miterlimit="10"/></g><g clip-path="url(#b02269da33)"><path stroke-linecap="butt" transform="matrix(0.810013, 0, 0, 0.810891, -6.158717, 202.668041)" fill="none" stroke-linejoin="miter" d="M 0.900022 34.602087 C 53.599786 33.397779 97.001861 76.598715 119.701147 123.499284 C 142.400432 170.399854 150.998865 223.399039 172.598632 271.499099 C 195.399188 322.099302 237.798194 365.902392 290.999493 376.39914 C 303.398019 378.798121 316.10036 379.299114 328.600157 377.800954 C 354.197737 374.698657 378.498077 363.999585 398.400339 347.201898 C 422.599407 326.699759 439.19829 298.302177 451.500367 268.401619 C 456.501251 256.19957 460.798056 243.800016 464.800692 231.400461 C 478.597729 188.199525 489.901559 143.697937 513.198828 105.001114 C 532.599556 72.797919 563.598283 44.000507 600.099428 37.400899 C 619.799148 33.79761 639.301147 36.500077 657.501084 44.699005 C 675.599749 52.801589 691.301655 65.798481 704.298166 80.900503 C 722.00139 101.600148 735.600707 126.50042 749.002303 150.798537 C 755.001434 161.598771 761.101837 172.399005 767.698953 182.90057 C 787.09968 213.499627 813.801601 241.502196 845.200592 251.801438 C 849.000684 253.000929 852.800777 253.998096 856.702142 254.600249 C 871.998962 257.100393 887.098062 255.197586 902.100712 251.599114 C 926.401052 245.698005 950.701392 234.401596 970.000848 215.397617 " stroke="#b3b3b3" stroke-width="1" stroke-opacity="1" stroke-miterlimit="10"/></g><g clip-path="url(#fd5dfc776c)"><path stroke-linecap="butt" transform="matrix(0.810013, 0, 0, 0.810891, -6.158717, 202.668041)" fill="none" stroke-linejoin="miter" d="M 0.702301 27.800156 C 54.598034 26.200835 99.900156 69.498115 124.099224 117.198345 C 148.298292 164.898575 158.102338 218.899744 180.198817 268.199295 C 203.298366 319.497997 244.597852 365.097914 298.498407 377.1988 C 310.998205 379.997612 323.898266 380.80209 336.701878 379.698944 C 362.800993 377.299962 387.901859 367.101882 408.300835 350.40054 C 433.30043 330.100725 450.502119 301.500819 463.300909 271.301592 C 468.499513 258.998382 472.998862 246.401321 477.097947 233.900604 C 491.401342 190.299839 502.999341 145.099752 527.198409 106.200605 C 546.401416 75.399224 576.498344 47.998809 611.499706 40.801865 C 630.50017 36.899907 649.399363 38.797896 667.300308 46.10082 C 685.201252 53.297764 700.700616 65.398651 713.701949 79.59985 C 731.299079 99.100005 745.20221 122.901948 758.497713 146.198081 C 764.400395 156.598484 770.298255 166.998888 776.798921 177.201785 C 795.500393 206.798858 820.200996 234.300434 850.100204 246.097835 C 853.697753 247.49965 857.300126 248.69914 861.100218 249.498801 C 875.697783 253.000929 890.599162 252.398775 905.39927 249.898631 C 929.400618 245.698005 953.498414 235.702249 972.002166 217.098099 " stroke="#b3b3b3" stroke-width="1" stroke-opacity="1" stroke-miterlimit="10"/></g><g clip-path="url(#f129773e3a)"><path stroke-linecap="butt" transform="matrix(0.810013, 0, 0, 0.810891, -6.158717, 202.668041)" fill="none" stroke-linejoin="miter" d="M 0.60103 20.998225 C 55.798825 19.100235 102.899721 62.498677 128.699844 110.902223 C 154.499966 159.300951 165.39871 214.501611 188.001546 265.000653 C 211.298815 316.997854 251.701325 364.399415 306.098593 378.200785 C 318.699662 381.399427 331.802266 382.598917 344.798776 381.698095 C 371.399426 379.997612 397.199549 370.300524 418.29778 353.801505 C 444.199174 333.699197 461.902398 304.998129 475.101451 274.399072 C 480.497776 261.999518 485.098396 249.301294 489.400024 236.598254 C 504.200131 192.501314 516.101945 146.699073 541.197989 107.602419 C 560.102004 78.101691 589.301956 52.199435 623.001256 44.501499 C 641.201193 40.300873 659.598851 41.399202 677.200803 47.801303 C 694.797934 54.102242 710.200848 65.201144 723.202181 78.597866 C 740.900582 96.89853 755.001434 119.500982 768.099216 141.799948 C 773.900627 151.69936 779.702038 161.801095 785.898889 171.599344 C 804.002377 200.19925 826.600391 227.098673 854.999816 240.601374 C 858.399645 242.200695 861.900746 243.597692 865.498295 244.700838 C 879.497876 249.098971 894.100263 249.898631 908.697828 248.400472 C 932.400183 246.001491 956.300259 237.200408 973.998661 219.000906 " stroke="#b3b3b3" stroke-width="1" stroke-opacity="1" stroke-miterlimit="10"/></g><g clip-path="url(#5831dbf54a)"><path stroke-linecap="butt" transform="matrix(0.810013, 0, 0, 0.810891, -6.158717, 202.668041)" fill="none" stroke-linejoin="miter" d="M 0.398487 14.20111 C 56.898344 11.999635 105.798015 55.398077 133.097921 104.601284 C 160.397826 153.799673 172.502183 210.098662 195.50046 261.802011 C 219.000272 314.497711 258.500983 363.802079 313.501058 379.197952 C 326.299847 382.801241 339.498901 384.2994 352.799226 383.798408 C 379.800139 382.801241 406.50206 373.600328 428.198275 357.298816 C 454.900196 337.297669 473.201405 308.500257 486.901993 277.50137 C 492.399589 265.000653 497.299201 252.100106 501.600829 239.300721 C 516.89765 194.697971 529.098455 148.298394 555.101121 108.999416 C 573.79777 80.799341 602.100746 56.2989 634.300263 48.099971 C 651.800944 43.600677 669.600618 43.899345 686.898756 49.400624 C 704.201716 54.800741 719.402088 64.99882 732.49987 77.499537 C 750.198271 94.499548 764.501666 116.100016 777.401728 137.401815 C 783.101867 146.901397 788.802006 156.50214 794.801137 166.001721 C 812.200547 193.700804 832.802065 219.998073 859.798156 234.998933 C 863.000265 236.800578 866.298823 238.399899 869.698652 239.700551 C 883.100248 244.999506 897.398821 247.200981 911.798665 246.801151 C 935.298477 246.198997 958.79829 238.501061 975.802258 220.797733 " stroke="#b3b3b3" stroke-width="1" stroke-opacity="1" stroke-miterlimit="10"/></g><g clip-path="url(#6a8ca51f91)"><path stroke-linecap="butt" transform="matrix(0.810013, 0, 0, 0.810891, -6.158717, 202.668041)" fill="none" stroke-linejoin="miter" d="M 0.200766 7.399179 C 57.997863 4.797874 108.59986 48.398639 137.50082 98.300344 C 166.40178 148.202049 179.600833 205.700529 203.100646 258.502207 C 226.798179 312.002384 265.401913 363.098763 320.999972 380.098774 C 333.900033 384.101894 347.398078 385.898721 360.799675 385.701215 C 388.302123 385.397729 415.698477 376.697808 438.098771 360.598619 C 465.601219 340.799797 484.39914 311.800061 498.601264 280.497688 C 504.301403 267.900627 509.302286 254.898918 513.801635 241.902026 C 529.59999 196.798284 542.099788 149.700208 568.99943 110.300069 C 587.40191 83.400646 614.899535 60.398364 645.59927 51.698443 C 662.299424 47.001642 679.602385 46.399488 696.601531 50.999945 C 713.701949 55.499239 728.699777 64.700152 741.89883 76.401208 C 759.602054 92.201729 774.199619 112.597889 786.90196 132.998865 C 792.602099 142.098616 798.099695 151.299529 803.799834 160.500442 C 820.499988 187.202358 839.20146 212.998635 864.601319 229.598816 C 867.600885 231.597967 870.798171 233.29845 874.00028 234.998933 C 886.697798 241.299872 900.899921 244.802 915.000773 245.500498 C 938.201594 246.699989 961.498863 240.201543 977.601033 222.801702 " stroke="#b3b3b3" stroke-width="1" stroke-opacity="1" stroke-miterlimit="10"/></g><g clip-path="url(#3fd4e5f7dd)"><path stroke-linecap="butt" transform="matrix(0.810013, 0, 0, 0.810891, -6.158717, 202.668041)" fill="none" stroke-linejoin="miter" d="M -0.00177674 0.602065 C 59.102205 -2.297909 111.498155 41.29804 142.000169 92.100567 C 172.502183 142.898277 186.800755 201.302396 210.802103 255.39991 C 234.798628 309.502241 272.399292 362.501426 328.498886 381.100758 C 368.100868 394.299974 413.798431 387.801528 448.100538 364.100747 C 487.900241 336.59917 509.900271 290.300755 526.200161 244.700838 C 542.500052 199.202083 555.202392 151.299529 583.100282 111.798228 C 610.998171 72.301744 659.299858 42.401186 706.502026 52.700428 C 745.901466 61.299186 774.599883 94.798217 796.402192 128.701895 C 818.199678 162.600755 837.301414 199.79942 869.500931 224.102355 C 901.599177 248.400472 952.398895 254.600249 979.602351 224.800853 " stroke="#b3b3b3" stroke-width="1" stroke-opacity="1" stroke-miterlimit="10"/></g><g clip-path="url(#893dc92781)"><path stroke-linecap="butt" transform="matrix(0.810013, 0, 0, 0.810891, -6.158717, 202.668041)" fill="none" stroke-linejoin="miter" d="M 0.499758 12.298304 C 58.701941 10.400314 109.197845 54.598417 138.002355 105.102276 C 166.802043 155.601317 180.001097 213.600789 203.799901 266.898642 C 214.901188 291.697752 229.600024 315.702018 247.500969 335.698348 C 265.802177 356.099325 287.401943 372.299676 311.900003 381.500589 C 316.900887 383.398578 321.998219 384.901554 327.201646 386.202207 C 366.798806 395.899295 410.601145 385.802377 445.100972 360.99845 C 453.699406 354.798672 461.598583 347.900396 469.001048 340.501128 C 495.90069 313.399382 514.901154 280.097858 530.101525 247.89948 C 532.098021 243.597692 534.099339 239.199559 536.100657 234.801427 C 552.800811 197.997775 568.99943 161.699933 595.301087 128.499571 C 623.700512 92.601559 669.200354 63.79933 714.700196 73.101404 C 752.599853 80.799341 780.497742 111.701883 801.899788 142.801932 C 823.301833 173.800819 842.099754 207.902004 872.90076 229.80114 C 903.701767 251.700276 951.902182 256.498239 977.798754 227.700827 " stroke="#b3b3b3" stroke-width="1" stroke-opacity="1" stroke-miterlimit="10"/></g><g clip-path="url(#952abbdfae)"><path stroke-linecap="butt" transform="matrix(0.810013, 0, 0, 0.810891, -6.158717, 202.668041)" fill="none" stroke-linejoin="miter" d="M 1.001293 24.100522 C 58.398127 23.098538 106.998806 67.898794 134.100991 118.200329 C 161.198353 168.501864 173.201438 226.000344 196.898971 278.498537 C 208.400521 303.798639 224.300148 327.798088 243.401884 346.999574 C 262.89906 366.60089 285.699617 381.100758 310.597941 388.100196 C 315.700096 389.502011 320.802251 390.60034 326.000855 391.4 C 365.501566 397.599777 407.500308 383.89957 442.101407 358.002132 C 450.69984 351.498868 458.801561 344.398269 466.599467 336.999001 C 494.801171 309.998416 516.299665 279.601683 533.901618 251.001777 C 536.298377 247.099819 538.598687 243.299024 540.898997 239.401883 C 560.198453 206.90002 579.801724 176.300963 607.501893 145.099752 C 636.301581 112.69905 679.202121 85.101129 722.898366 93.300058 C 759.29824 100.198334 786.400425 128.398409 807.402207 156.598484 C 828.399166 184.79856 846.898095 215.701102 876.401861 235.201257 C 905.900805 254.701411 951.400647 258.102377 976.101251 230.302132 " stroke="#b3b3b3" stroke-width="1" stroke-opacity="1" stroke-miterlimit="10"/></g><g clip-path="url(#6065f51892)"><path stroke-linecap="butt" transform="matrix(0.810013, 0, 0, 0.810891, -6.158717, 202.668041)" fill="none" stroke-linejoin="miter" d="M 1.599278 35.801578 C 58.200406 35.700416 104.799768 81.199171 130.300898 131.298383 C 155.802028 181.402411 166.40178 238.399899 190.099313 290.098431 C 201.899855 315.899525 219.000272 340.000136 239.399248 358.3008 C 260.102038 377.001294 284.098563 389.800679 309.300701 394.598642 C 314.398034 395.600626 319.60146 396.197963 324.800065 396.597793 C 364.300775 399.30026 404.399471 382.097925 439.19829 355.000996 C 447.897995 348.199065 456.202259 341.00212 464.197885 333.598035 C 493.60038 306.698612 517.799448 279.298197 537.79816 254.200419 C 540.498734 250.799454 543.098036 247.49965 545.70216 244.098684 C 567.600918 215.898609 590.401475 191.099499 619.697876 161.801095 C 648.598836 132.897704 689.097794 106.398111 731.000087 113.701035 C 765.900178 119.79965 792.201835 145.302076 812.798531 170.698522 C 833.40005 196.099786 851.599986 223.798869 879.80169 240.79888 C 907.998572 257.798891 950.899112 260.000366 974.297653 233.100944 " stroke="#b3b3b3" stroke-width="1" stroke-opacity="1" stroke-miterlimit="10"/></g><g clip-path="url(#595c175c10)"><path stroke-linecap="butt" transform="matrix(0.810013, 0, 0, 0.810891, -6.158717, 202.668041)" fill="none" stroke-linejoin="miter" d="M 2.100813 47.497817 C 57.800143 48.398639 102.499458 94.499548 126.298262 144.300091 C 150.101889 194.100634 159.602121 250.698292 183.198383 301.601981 C 195.399188 328.000411 213.700397 351.999861 235.300163 369.500864 C 257.198921 387.300536 282.502331 398.399438 307.998639 401.000743 C 313.202066 401.501735 318.40067 401.699242 323.599274 401.59808 C 362.998713 400.798419 401.298633 379.997612 436.299996 351.802354 C 444.999701 344.701754 453.501685 337.398831 461.902398 329.999563 C 492.602132 303.201302 519.400503 278.700861 541.800796 257.201555 C 544.800361 254.301581 547.799927 251.401608 550.698221 248.597979 C 575.302375 224.699691 601.001226 205.801691 632.101225 178.300114 C 661.002184 152.797688 699.302104 127.598749 739.4008 133.899688 C 772.902379 139.102298 798.398687 161.998601 818.49867 184.601053 C 838.699925 207.198688 856.499599 231.699129 883.500512 246.300159 C 910.400154 260.901189 950.60012 261.700849 972.899142 235.798594 " stroke="#b3b3b3" stroke-width="1" stroke-opacity="1" stroke-miterlimit="10"/></g><g clip-path="url(#708e55660f)"><path stroke-linecap="butt" transform="matrix(0.810013, 0, 0, 0.810891, -6.158717, 202.668041)" fill="none" stroke-linejoin="miter" d="M 2.602348 59.198873 C 57.501151 61.000518 100.199148 107.698764 122.40172 157.398145 C 144.599471 207.102343 152.79764 263.001502 176.302275 313.201875 C 188.898522 340.101298 208.400521 364.100747 231.201078 380.80209 C 254.300627 397.802101 280.800005 407.099359 306.701399 407.499189 C 312.001275 407.600351 317.199879 407.301682 322.398483 406.699528 C 361.797922 402.39774 398.299068 378.099623 433.30043 348.700057 C 442.101407 341.300789 450.69984 333.800359 459.500816 326.502252 C 491.497791 299.800336 520.799014 278.199868 545.70216 260.400197 C 549.000718 258.001215 552.299276 255.602234 555.501384 253.299597 C 582.700018 233.601936 611.200714 220.600227 644.30203 195.001457 C 672.899175 172.798835 709.197778 149.00171 747.598969 154.300665 C 779.600766 158.698797 804.301369 178.902268 824.001089 198.701091 C 843.80208 218.499914 861.297939 239.801713 887.001612 251.998944 C 912.599192 264.200993 950.199856 263.7 971.201638 238.698567 " stroke="#b3b3b3" stroke-width="1" stroke-opacity="1" stroke-miterlimit="10"/></g><g clip-path="url(#b73a9e1ae1)"><path stroke-linecap="butt" transform="matrix(0.810013, 0, 0, 0.810891, -6.158717, 202.668041)" fill="none" stroke-linejoin="miter" d="M 3.09906 70.89993 C 57.202158 73.602397 97.898838 120.999141 118.500356 170.501016 C 139.101874 219.998073 145.997982 275.401057 169.401345 324.801769 C 182.397856 352.202184 203.100646 376.201633 227.101993 392.098499 C 251.498782 408.101343 279.097679 415.799279 305.298065 414.098797 C 310.597941 413.698966 315.897817 413.000468 321.101243 411.998483 C 360.399411 404.199385 395.101782 376.297978 430.300865 345.901245 C 439.101841 338.299653 447.897995 330.601717 457.099235 323.298793 C 490.301822 296.698039 522.298797 278.098707 549.502253 263.801162 C 553.201074 261.898356 556.702175 260.000366 560.198453 258.198722 C 590.001212 242.798031 621.197659 235.601087 656.401564 211.900306 C 684.501997 192.901144 719.098273 170.602177 755.599418 174.797986 C 786.101432 178.300114 810.001509 195.902279 829.300965 212.90229 C 848.600421 229.80114 865.898559 248.000642 890.198899 257.69773 C 914.499238 267.500796 949.399329 265.59799 969.200321 241.598541 " stroke="#b3b3b3" stroke-width="1" stroke-opacity="1" stroke-miterlimit="10"/></g><g clip-path="url(#2ac29fca6e)"><path stroke-linecap="butt" transform="matrix(0.810013, 0, 0, 0.810891, -6.158717, 202.668041)" fill="none" stroke-linejoin="miter" d="M 3.600596 82.600986 C 56.898344 86.30062 95.598528 134.299518 114.598992 183.497907 C 133.599456 232.701113 139.299595 287.69945 162.500415 336.300502 C 175.902012 364.298254 197.80077 388.297703 223.099357 403.298563 C 248.701759 418.501747 277.597896 424.398038 304.102097 420.500898 C 309.498422 419.701237 314.798297 418.501747 320.001724 416.99877 C 359.299892 405.702361 392.102216 374.197665 427.499019 342.697786 C 436.401267 334.802343 445.399964 326.902083 454.798925 319.700321 C 489.298752 293.200728 523.79858 277.50137 553.500066 266.802298 C 557.49788 265.400483 561.399244 263.998669 565.199337 262.601672 C 597.601397 251.401608 631.300697 249.999793 668.80009 228.298164 C 696.297716 212.300136 729.201312 191.701653 764.000131 194.900295 C 793.002362 197.597945 816.101911 212.497643 835.001104 226.597681 C 853.900296 240.697718 870.798171 255.698578 893.89772 263.001502 C 916.90082 270.299608 949.201609 267.100966 967.700538 244.098684 " stroke="#b3b3b3" stroke-width="1" stroke-opacity="1" stroke-miterlimit="10"/></g><path stroke-linecap="butt" transform="matrix(0.810013, 0, 0, 0.810891, -6.158717, 202.668041)" fill="none" stroke-linejoin="miter" d="M 4.102131 94.302042 C 56.49808 98.897681 93.298218 147.498733 110.601178 196.600778 C 127.899317 245.698005 132.398665 299.997843 155.599485 347.900396 C 169.401345 376.39914 192.399623 400.499751 219.000272 414.599789 C 245.702194 428.90215 275.900393 433.097959 302.800035 426.999344 C 308.297631 425.698691 313.602329 424.09937 318.800933 422.100219 C 357.99783 407.301682 389.001379 372.299676 424.499454 339.600306 C 433.401702 331.401377 442.598119 323.399955 452.402166 316.101849 C 488.097961 289.698601 525.298362 276.899216 557.401431 269.798616 C 561.698236 268.801449 565.898593 267.900627 569.997677 267.100966 C 605.100311 260.197873 640.99865 264.398499 681.000896 244.802 C 707.697995 231.699129 739.198256 212.90229 772.198301 215.098948 C 799.700749 217.001755 821.999771 229.198986 840.4987 240.500212 C 858.997629 251.801438 875.601334 263.598839 897.398821 268.497963 C 919.20113 273.401905 948.700074 268.897794 966.099483 246.801151 " stroke="#b3b3b3" stroke-width="1" stroke-opacity="1" stroke-miterlimit="10"/><path stroke-linecap="butt" transform="matrix(0.810013, 0, 0, 0.810891, -6.158717, 202.668041)" fill="none" stroke-linejoin="miter" d="M 4.598843 106.099443 C 56.199088 111.701883 90.997908 160.900272 106.699814 209.698831 C 122.40172 258.502207 125.700278 312.402215 148.698555 359.500291 C 162.900679 388.500026 187.099747 412.600637 214.901188 425.901015 C 242.900349 439.398898 274.198067 441.79788 301.401524 433.598951 C 307.000391 431.898468 312.300267 429.798155 317.498871 427.399174 C 356.70059 409.09851 385.79927 370.498031 421.499888 336.700332 C 430.498585 328.197918 439.801097 320.100151 450.000584 312.802045 C 486.998442 286.499959 526.701696 276.701709 561.297973 273.09842 C 565.898593 272.602245 570.397941 272.202415 574.902112 271.898929 C 612.599225 269.398786 650.701425 278.802022 693.201702 261.599687 C 719.001824 251.199284 749.098752 234.401596 780.300022 235.601087 C 806.399136 236.598254 827.801182 246.198997 845.899847 254.701411 C 863.998513 263.199008 880.298403 271.797767 900.79865 274.201566 C 921.298897 276.701709 948.198539 270.8006 964.300708 249.701125 " stroke="#b3b3b3" stroke-width="1" stroke-opacity="1" stroke-miterlimit="10"/><path stroke-linecap="butt" transform="matrix(0.810013, 0, 0, 0.810891, -6.158717, 202.668041)" fill="none" stroke-linejoin="miter" d="M 5.100378 117.800499 C 55.900096 124.298945 88.798869 174.20065 102.79845 222.801702 C 116.79803 271.397937 118.90062 324.801769 141.797626 371.100185 C 156.400013 400.600913 181.799872 424.701524 210.802103 437.202241 C 240.002054 449.799302 272.500564 450.497801 300.099461 440.102214 C 305.698329 437.900739 311.099476 435.400596 316.29808 432.500622 C 355.398528 410.697831 382.799704 368.49888 418.601594 333.598035 C 427.600291 324.801769 437.201795 316.501679 447.700274 309.299917 C 485.898923 282.997831 528.201479 276.200717 565.300608 276.200717 C 570.20022 276.200717 575.099832 276.301879 579.801724 276.499386 C 620.09814 278.199868 660.298106 292.598574 705.498956 278.199868 C 730.300831 270.299608 759.100519 255.602234 788.599463 255.79974 C 813.198795 256.002064 833.901585 262.90034 851.498715 268.599125 C 869.201939 274.297911 885.198015 279.698028 904.401022 279.698028 C 923.599207 279.698028 947.798275 272.602245 962.699654 252.398775 " stroke="#b3b3b3" stroke-width="1" stroke-opacity="1" stroke-miterlimit="10"/><path stroke-linecap="butt" transform="matrix(0.810013, 0, 0, 0.810891, -6.158717, 202.668041)" fill="none" stroke-linejoin="miter" d="M 5.601913 129.501555 C 55.499833 136.900823 86.498559 187.399865 98.901908 235.798594 C 111.300434 284.202139 112.202233 336.999001 134.901518 382.598917 C 149.899346 412.701799 176.398724 436.80241 206.698195 448.402305 C 237.098938 460.098544 270.89951 459.197721 298.70095 446.499498 C 304.401089 443.898193 309.802236 440.901875 315.00084 437.500909 C 354.101288 412.301969 379.602418 366.499729 415.500757 330.500555 C 424.600725 321.400804 434.298678 312.999551 445.100972 305.79779 C 484.601683 279.601683 529.498719 275.598563 568.898158 279.298197 C 574.198034 279.799189 579.300189 280.401343 584.402344 281.099842 C 627.399333 287.102113 669.499346 306.101275 717.502041 294.800049 C 741.402117 289.197609 768.899743 276.899216 796.599912 276.099555 C 819.699461 275.401057 839.601724 279.698028 856.798591 282.501656 C 874.00028 285.40163 889.702186 287.598288 907.69958 285.199306 C 925.600525 282.800325 947.200291 274.297911 960.799608 255.202403 " stroke="#b3b3b3" stroke-width="1" stroke-opacity="1" stroke-miterlimit="10"/><path stroke-linecap="butt" transform="matrix(0.810013, 0, 0, 0.810891, -6.158717, 202.668041)" fill="none" stroke-linejoin="miter" d="M 6.098626 141.197794 C 55.200841 149.599047 84.198249 200.700242 94.899272 248.901464 C 105.600295 297.097869 105.397752 349.398555 127.899317 394.09765 C 143.302231 424.701524 171.0024 448.802135 202.497839 459.602369 C 234.099372 470.498947 269.100735 467.801297 297.297616 452.997944 C 303.099027 450.001626 308.500174 446.499498 313.698778 442.698702 C 352.697954 413.997635 376.40031 364.601739 412.501191 327.499419 C 421.60116 318.101 431.501655 309.598586 442.699391 302.401641 C 483.400892 276.301879 530.902053 275.198733 572.799522 282.501656 C 578.39839 283.498823 583.900809 284.60197 589.200684 285.80146 C 634.801798 296.100702 678.898307 319.098167 729.698024 311.501392 C 752.701124 307.999265 778.800239 298.302177 804.701633 296.500532 C 826.301399 295.002373 845.398312 296.601694 862.199738 296.601694 C 879.001163 296.601694 894.399255 295.700872 910.998138 290.801747 C 927.601843 285.998967 946.501035 276.099555 959.000833 258.001215 " stroke="#b3b3b3" stroke-width="1" stroke-opacity="1" stroke-miterlimit="10"/><path stroke-linecap="butt" transform="matrix(0.810013, 0, 0, 0.810891, -6.158717, 202.668041)" fill="none" stroke-linejoin="miter" d="M 6.600161 152.89885 C 54.901848 162.200925 81.897939 214.000619 91.099179 261.999518 C 100.300419 309.998416 98.800636 361.701766 121.20093 405.702361 C 137.100556 436.80241 165.900245 460.999366 198.601297 470.898778 C 231.398799 480.899351 267.600952 476.501218 296.198097 459.501207 C 301.999508 455.999079 307.501926 452.101939 312.70053 447.800151 C 351.699706 415.601773 373.502015 362.698933 409.800618 324.401939 C 419.001858 314.700034 428.998802 306.000114 440.601624 298.899514 C 482.600365 272.900913 532.700827 274.798903 576.999879 285.700298 C 582.897739 287.102113 588.699149 288.701434 594.399289 290.401917 C 642.599704 304.998129 688.900074 331.497722 742.299094 328.101573 C 764.501666 326.699759 789.20227 319.599159 813.300066 316.800347 C 833.40005 314.401366 851.701258 313.399382 868.10242 310.60057 C 884.498759 307.801758 899.597859 303.702294 914.899502 296.39937 C 930.201145 289.101264 946.501035 278.002362 957.698771 260.800027 " stroke="#b3b3b3" stroke-width="1" stroke-opacity="1" stroke-miterlimit="10"/><path stroke-linecap="butt" transform="matrix(0.810013, 0, 0, 0.810891, -6.158717, 202.668041)" fill="none" stroke-linejoin="miter" d="M 7.198145 164.599907 C 54.598034 174.899148 79.698901 227.199835 87.197815 275.001226 C 94.701551 322.797801 92.102249 373.898997 114.3 417.201094 C 130.59989 448.802135 160.499098 472.999091 194.502212 482.098842 C 228.500504 491.198593 265.999898 485.099977 294.799586 465.898491 C 300.702268 462.00135 306.199864 457.5984 311.398468 452.800437 C 350.397644 417.099932 370.299907 360.598619 406.699781 321.19848 C 415.90102 311.197907 426.20178 302.401641 438.098771 295.301042 C 481.399574 269.398786 533.998067 274.201566 580.799972 288.701434 C 587.001646 290.599423 593.102049 292.699736 599.10118 294.901211 C 650.002169 313.799212 698.598026 343.29994 754.398628 344.600592 C 775.901945 345.101585 799.001494 340.799797 821.401787 336.897839 C 840.098437 333.699197 857.497846 329.999563 873.498745 324.401939 C 889.499643 318.799499 904.198479 311.501392 918.299331 301.799487 C 932.298912 292.097582 945.898229 279.601683 955.899996 263.401332 " stroke="#b3b3b3" stroke-width="1" stroke-opacity="1" stroke-miterlimit="10"/><g clip-path="url(#d57547c7b7)"><path stroke-linecap="butt" transform="matrix(0.810013, 0, 0, 0.810891, -6.158717, 202.668041)" fill="none" stroke-linejoin="miter" d="M 7.69968 176.300963 C 54.299042 187.501027 77.398591 240.500212 83.301273 288.09928 C 89.097861 335.698348 85.297768 386.298551 107.39907 428.800988 C 124.099224 460.898204 155.199222 485.099977 190.398305 493.400068 C 225.60221 501.700158 264.302394 493.799898 293.502346 472.401754 C 356.001334 426.700675 368.698852 330.698061 435.702012 291.900076 C 486.101466 262.698016 550.399229 276.499386 603.899521 299.598012 C 657.399812 322.701456 708.701065 354.798672 766.599433 361.301935 C 840.30098 369.500864 917.199812 330.500555 954.101221 266.200144 " stroke="#b3b3b3" stroke-width="1" stroke-opacity="1" stroke-miterlimit="10"/></g></svg>