<svg xmlns="http://www.w3.org/2000/svg" xmlns:xlink="http://www.w3.org/1999/xlink" width="1587" zoomAndPan="magnify" viewBox="0 0 1190.25 1683.749949" height="2245" preserveAspectRatio="xMidYMid meet" version="1.0"><defs><clipPath id="c22f7927a4"><path d="M 265 12 L 1189.5 12 L 1189.5 1671 L 265 1671 Z M 265 12 " clip-rule="nonzero"/></clipPath><clipPath id="d088967b13"><path d="M 2 0.421875 L 924.5 0.421875 L 924.5 1658.707031 L 2 1658.707031 Z M 2 0.421875 " clip-rule="nonzero"/></clipPath><clipPath id="133bb4f1a2"><rect x="0" width="925" y="0" height="1659"/></clipPath></defs><g clip-path="url(#c22f7927a4)"><g transform="matrix(1, 0, 0, 1, 265, 12)"><g clip-path="url(#133bb4f1a2)"><g clip-path="url(#d088967b13)"><path fill="#100f0d" d="M 1625.3125 1147.433594 L 1454.195312 1147.433594 L 1367.367188 990.402344 L 1453.460938 835.167969 L 1798.617188 835.167969 Z M 1524.007812 1310.980469 L 1179.234375 1310.980469 L 1006.296875 998.714844 L 1167.648438 998.714844 L 1257.375 1160.820312 L 1258.09375 1161.90625 L 1258.828125 1162.628906 L 1259.902344 1163.347656 L 1260.636719 1164.085938 L 1262.078125 1164.804688 L 1443.695312 1164.804688 Z M 1351.085938 1640.96875 L 1006.296875 1640.96875 L 1179.234375 1329.070312 L 1524.007812 1329.070312 Z M 1025.109375 1324.011719 L 1025.828125 1322.554688 L 1025.828125 1321.835938 C 1026.039062 1321.128906 1026.152344 1320.40625 1026.195312 1319.671875 C 1026.152344 1318.9375 1026.039062 1318.203125 1025.828125 1317.496094 L 1025.828125 1316.773438 L 1025.109375 1315.320312 L 922.71875 1130.785156 L 990.738281 1008.128906 L 1163.308594 1319.671875 L 990.738281 1631.203125 L 922.71875 1508.546875 Z M 829.019531 1640.96875 L 483.863281 1640.96875 L 656.804688 1329.070312 L 802.605469 1329.070312 L 902.097656 1508.902344 Z M 381.121094 1165.527344 L 555.148438 1165.527344 L 641.242188 1320.027344 L 468.671875 1631.570312 L 296.101562 1320.027344 Z M 209.273438 1147.433594 L 382.210938 835.167969 L 727.351562 835.167969 L 647.039062 980.621094 L 465.421875 980.621094 L 463.96875 981.359375 L 463.246094 982.078125 L 462.15625 982.800781 L 461.4375 983.519531 L 460.714844 984.609375 L 370.988281 1146.714844 L 209.625 1146.714844 Z M 194.082031 514.59375 L 366.652344 826.121094 L 194.082031 1137.667969 L 21.863281 826.121094 Z M 460.714844 674.152344 L 461.4375 675.242188 L 462.15625 675.960938 L 463.246094 676.683594 L 463.96875 677.769531 L 465.421875 678.492188 L 651.023438 678.492188 L 727.71875 816.722656 L 382.5625 816.722656 L 209.625 505.179688 L 367.019531 505.179688 Z M 296.101562 339.457031 L 468.671875 27.925781 L 641.242188 339.457031 L 559.839844 486.71875 L 377.503906 486.71875 Z M 829.019531 18.144531 L 915.484375 174.101562 L 829.019531 330.410156 L 656.804688 330.410156 L 483.863281 18.511719 L 829.019531 18.511719 Z M 1017.152344 27.925781 L 1189.722656 339.457031 L 1017.152344 651 L 936.101562 504.457031 L 1025.109375 343.796875 L 1025.828125 342.351562 L 1025.828125 341.632812 C 1026.039062 340.925781 1026.152344 340.191406 1026.195312 339.457031 C 1026.152344 338.722656 1026.039062 338 1025.828125 337.292969 L 1025.828125 336.558594 L 1025.109375 335.117188 L 936.101562 174.46875 Z M 1550.421875 330.410156 L 1205.636719 330.410156 L 1032.710938 18.511719 L 1377.851562 18.511719 Z M 1265.332031 487.085938 L 1262.078125 487.085938 L 1260.636719 487.808594 L 1259.902344 488.527344 L 1258.828125 489.265625 L 1258.09375 489.984375 L 1257.375 491.074219 L 1163.675781 660.398438 L 1032.710938 660.398438 L 1205.636719 348.5 L 1550.789062 348.5 L 1474.09375 486.71875 L 1265.332031 486.71875 Z M 1356.867188 1008.847656 L 1433.5625 1147.433594 L 1280.535156 1147.433594 Z M 1280.167969 504.8125 L 1463.59375 504.8125 L 1377.484375 660.765625 L 1366.632812 660.765625 Z M 1264.976562 514.59375 L 1346.011719 660.765625 L 1184.296875 660.765625 Z M 1092.40625 826.121094 L 1173.808594 678.859375 L 1355.777344 678.859375 L 1437.546875 826.121094 L 1352.160156 980.621094 L 1178.148438 980.621094 Z M 849.640625 330.410156 L 925.617188 192.914062 L 1001.589844 330.410156 Z M 1001.957031 348.5 L 925.984375 486 L 850.007812 348.5 L 1002.3125 348.5 Z M 572.871094 500.472656 L 656.804688 348.5 L 829.019531 348.5 L 915.484375 504.457031 L 829.019531 660.398438 L 661.507812 660.398438 Z M 562.386719 519.285156 L 640.890625 661.136719 L 483.863281 661.136719 Z M 387.636719 505.179688 L 549.355469 505.179688 L 468.320312 651.355469 Z M 483.863281 998.714844 L 636.90625 998.714844 L 560.207031 1136.945312 Z M 468.671875 1008.496094 L 545.738281 1147.433594 L 391.609375 1147.433594 Z M 802.605469 1310.980469 L 656.804688 1310.980469 L 570.695312 1155.757812 L 657.523438 998.714844 L 828.652344 998.714844 L 901.730469 1130.785156 Z M 1001.957031 1329.070312 L 912.585938 1490.089844 L 823.226562 1329.070312 Z M 823.226562 1310.980469 L 912.585938 1149.609375 L 1001.957031 1310.980469 Z M 991.105469 980.621094 L 987.839844 980.621094 L 986.398438 981.359375 L 985.679688 982.078125 L 984.589844 982.800781 L 983.871094 983.519531 L 983.132812 984.609375 L 912.585938 1112.339844 L 842.402344 985.328125 C 840.808594 982.417969 837.753906 980.621094 834.449219 980.621094 L 668.023438 980.621094 L 751.234375 830.460938 L 751.957031 829.019531 L 751.957031 828.300781 C 752.167969 827.59375 752.28125 826.859375 752.324219 826.121094 C 752.28125 825.386719 752.167969 824.667969 751.957031 823.960938 L 751.957031 823.226562 L 751.234375 821.785156 L 671.996094 678.859375 L 834.800781 678.859375 C 838.121094 678.875 841.175781 677.0625 842.773438 674.152344 L 926.335938 523.269531 L 1009.195312 674.152344 L 1009.914062 675.242188 L 1010.636719 675.960938 L 1011.722656 676.683594 L 1012.445312 677.417969 L 1013.886719 678.136719 L 1153.175781 678.136719 L 1073.949219 821.0625 C 1072.464844 823.761719 1072.464844 827.042969 1073.949219 829.742188 L 1157.160156 979.902344 L 990.738281 979.902344 Z M 1188.28125 998.714844 L 1342.394531 998.714844 L 1265.332031 1137.667969 Z M 1625.3125 505.179688 L 1798.25 817.445312 L 1453.460938 817.445312 L 1376.765625 679.226562 L 1382.910156 679.226562 C 1386.234375 679.226562 1389.285156 677.429688 1390.882812 674.519531 L 1484.582031 505.179688 L 1625.679688 505.179688 Z M 1822.484375 828.300781 C 1822.699219 827.59375 1822.824219 826.859375 1822.851562 826.121094 C 1822.824219 825.386719 1822.699219 824.667969 1822.484375 823.960938 L 1822.484375 823.226562 L 1821.765625 821.785156 L 1638.707031 491.425781 C 1637.109375 488.515625 1634.058594 486.71875 1630.738281 486.71875 L 1494.714844 486.71875 L 1573.9375 343.796875 L 1574.660156 342.351562 L 1574.660156 341.632812 C 1574.871094 340.925781 1575 340.191406 1575.027344 339.457031 C 1575 338.722656 1574.871094 338 1574.660156 337.292969 L 1574.660156 336.558594 L 1573.9375 335.117188 L 1390.882812 5.128906 C 1389.285156 2.214844 1386.234375 0.40625 1382.910156 0.421875 L 1013.886719 0.421875 L 1012.445312 1.140625 L 1011.722656 1.863281 L 1010.636719 2.597656 L 1009.914062 3.316406 L 1009.195312 4.40625 L 925.984375 155.640625 L 842.402344 5.128906 C 840.808594 2.214844 837.753906 0.40625 834.449219 0.421875 L 465.421875 0.421875 L 463.96875 1.140625 L 463.246094 1.863281 L 462.15625 2.597656 L 461.4375 3.316406 L 460.714844 4.40625 L 277.644531 335.117188 C 276.175781 337.816406 276.175781 341.09375 277.644531 343.796875 L 356.886719 486.71875 L 191.183594 486.71875 L 189.726562 487.453125 L 189.007812 488.175781 L 187.917969 488.894531 L 187.199219 489.617188 L 186.476562 490.707031 L 3.421875 821.785156 C 1.9375 824.484375 1.9375 827.761719 3.421875 830.460938 L 186.476562 1160.820312 L 187.199219 1161.90625 L 187.917969 1162.628906 L 189.007812 1163.347656 L 189.726562 1164.085938 L 191.183594 1164.804688 L 360.855469 1164.804688 L 277.644531 1314.964844 C 276.175781 1317.664062 276.175781 1320.945312 277.644531 1323.644531 L 460.714844 1654 L 461.4375 1655.089844 L 462.15625 1655.8125 L 463.246094 1656.53125 L 463.96875 1657.253906 L 465.421875 1657.988281 L 834.449219 1657.988281 C 837.753906 1657.988281 840.808594 1656.191406 842.402344 1653.28125 L 912.585938 1527.726562 L 982.78125 1654.722656 L 983.503906 1655.8125 L 984.222656 1656.53125 L 985.3125 1657.253906 L 986.03125 1657.988281 L 987.488281 1658.707031 L 1356.511719 1658.707031 C 1359.820312 1658.722656 1362.871094 1656.914062 1364.46875 1654 L 1547.527344 1323.644531 L 1548.261719 1322.203125 L 1548.261719 1321.835938 C 1548.457031 1321.128906 1548.585938 1320.40625 1548.613281 1319.671875 C 1548.585938 1318.9375 1548.457031 1318.203125 1548.261719 1317.496094 L 1548.261719 1316.773438 L 1547.527344 1315.320312 L 1464.3125 1165.160156 L 1630.738281 1165.160156 C 1634.058594 1165.171875 1637.109375 1163.363281 1638.707031 1160.464844 L 1821.765625 830.109375 L 1822.484375 828.652344 L 1822.484375 827.933594 L 1822.484375 828.300781 " fill-opacity="1" fill-rule="nonzero"/></g></g></g></g></svg>