<svg xmlns="http://www.w3.org/2000/svg" xmlns:xlink="http://www.w3.org/1999/xlink" width="1587" zoomAndPan="magnify" viewBox="0 0 1190.25 1683.749949" height="2245" preserveAspectRatio="xMidYMid meet" version="1.0"><defs><clipPath id="18705c2f8e"><path d="M 1.058594 1 L 432.675781 1 L 432.675781 1644.023438 L 1.058594 1644.023438 Z M 1.058594 1 " clip-rule="nonzero"/></clipPath><clipPath id="ac67b8606c"><rect x="0" width="434" y="0" height="1646"/></clipPath></defs><g transform="matrix(1, 0, 0, 1, 702, 19)"><g clip-path="url(#ac67b8606c)"><g clip-path="url(#18705c2f8e)"><path fill="#000000" d="M 299.890625 1309.34375 L 299.890625 1094.21875 L 301.652344 1089.957031 L 372.894531 1018.707031 L 372.894531 835.652344 L 317.664062 739.980469 L 316.835938 736.988281 L 316.835938 619.308594 L 259.398438 519.832031 L 258.574219 516.820312 L 258.574219 44.6875 L 264.617188 44.6875 C 256.015625 44.6875 249.039062 37.710938 249.039062 29.109375 C 249.039062 20.511719 256.015625 13.542969 264.617188 13.542969 C 273.214844 13.542969 280.183594 20.511719 280.183594 29.109375 C 280.183594 37.710938 273.214844 44.6875 264.617188 44.6875 L 270.648438 44.6875 L 270.648438 515.230469 L 316.835938 595.222656 L 316.835938 66.851562 L 328.910156 66.851562 L 328.910156 616.136719 L 384.140625 711.804688 L 384.96875 714.816406 L 384.96875 832.519531 L 431.953125 913.902344 L 432.777344 916.902344 L 432.777344 1173.746094 L 431.015625 1178.015625 L 363.246094 1245.785156 L 363.246094 1470.988281 C 368.847656 1473.347656 372.78125 1478.894531 372.78125 1485.347656 C 372.78125 1493.949219 365.804688 1500.925781 357.207031 1500.925781 C 348.605469 1500.925781 341.636719 1493.949219 341.636719 1485.347656 C 341.636719 1478.894531 345.566406 1473.347656 351.171875 1470.988281 L 351.171875 1243.289062 L 352.9375 1239.019531 L 420.703125 1171.25 L 420.703125 918.464844 L 384.96875 856.566406 L 384.96875 1021.203125 L 383.195312 1025.472656 L 311.964844 1096.714844 L 311.964844 1309.34375 Z M 171.140625 107.339844 C 171.140625 98.742188 178.109375 91.765625 186.707031 91.765625 C 195.316406 91.765625 202.285156 98.742188 202.285156 107.339844 C 202.285156 115.910156 195.367188 122.859375 186.808594 122.910156 L 192.75 122.910156 L 192.75 464.878906 L 300.707031 651.851562 L 301.53125 654.851562 L 301.53125 893.328125 L 229.816406 965.035156 L 229.816406 1322.382812 L 217.742188 1322.382812 L 217.742188 960.039062 L 289.457031 888.335938 L 289.457031 656.414062 L 181.5 469.433594 L 180.675781 466.441406 L 180.675781 122.910156 L 186.617188 122.910156 C 178.058594 122.859375 171.140625 115.910156 171.140625 107.339844 Z M 63.375 1628.457031 C 63.375 1621.992188 67.3125 1616.453125 72.910156 1614.097656 L 72.910156 1271.109375 L 1.207031 1199.402344 L 1.207031 960.925781 L 2.03125 957.925781 L 109.988281 770.953125 L 109.988281 664.730469 L 65.761719 588.140625 L 64.945312 585.132812 L 64.945312 325.78125 L 109.988281 280.738281 L 109.988281 142.425781 L 122.0625 142.425781 L 122.0625 268.664062 L 134.476562 256.238281 L 134.476562 31.035156 C 128.878906 28.679688 124.941406 23.140625 124.941406 16.675781 C 124.941406 8.074219 131.917969 1.109375 140.519531 1.109375 C 149.117188 1.109375 156.085938 8.074219 156.085938 16.675781 C 156.085938 23.140625 152.160156 28.679688 146.550781 31.035156 L 146.550781 261.246094 L 122.0625 285.734375 L 122.0625 661.558594 L 180.0625 762.023438 L 180.886719 765.042969 L 180.886719 1420.824219 C 186.484375 1423.179688 190.421875 1428.71875 190.421875 1435.183594 C 190.421875 1443.78125 183.457031 1450.75 174.847656 1450.75 C 166.246094 1450.75 159.277344 1443.78125 159.277344 1435.183594 C 159.277344 1428.71875 163.214844 1423.179688 168.8125 1420.824219 L 168.8125 766.625 L 122.0625 685.636719 L 122.0625 772.515625 L 121.226562 775.507812 L 13.28125 962.488281 L 13.28125 1194.410156 L 84.984375 1266.113281 L 84.984375 1614.097656 C 90.582031 1616.453125 94.519531 1621.992188 94.519531 1628.457031 C 94.519531 1637.058594 87.554688 1644.023438 78.945312 1644.023438 C 70.34375 1644.023438 63.375 1637.058594 63.375 1628.457031 Z M 109.988281 640.644531 L 109.988281 297.808594 L 77.011719 330.773438 L 77.011719 583.539062 Z M 372.894531 811.617188 L 372.894531 716.40625 L 328.910156 640.222656 L 328.910156 735.417969 Z M 372.894531 811.617188 " fill-opacity="1" fill-rule="nonzero"/></g></g></g></svg>