<svg xmlns="http://www.w3.org/2000/svg" xmlns:xlink="http://www.w3.org/1999/xlink" width="1587" zoomAndPan="magnify" viewBox="0 0 1190.25 1683.749949" height="2245" preserveAspectRatio="xMidYMid meet" version="1.0"><defs><clipPath id="bb5cb166b2"><path d="M 0 0.421875 L 923 0.421875 L 923 1658.707031 L 0 1658.707031 Z M 0 0.421875 " clip-rule="nonzero"/></clipPath><clipPath id="fbd2e26c18"><rect x="0" width="925" y="0" height="1659"/></clipPath></defs><g transform="matrix(1, 0, 0, 1, 0, 12)"><g clip-path="url(#fbd2e26c18)"><g clip-path="url(#bb5cb166b2)"><path fill="#100f0d" d="M 724.742188 1147.433594 L 553.628906 1147.433594 L 466.796875 990.402344 L 552.894531 835.167969 L 898.046875 835.167969 Z M 623.441406 1310.980469 L 278.667969 1310.980469 L 105.730469 998.714844 L 267.078125 998.714844 L 356.804688 1160.820312 L 357.527344 1161.90625 L 358.261719 1162.628906 L 359.335938 1163.347656 L 360.070312 1164.085938 L 361.511719 1164.804688 L 543.128906 1164.804688 Z M 450.515625 1640.96875 L 105.730469 1640.96875 L 278.667969 1329.070312 L 623.441406 1329.070312 Z M 124.539062 1324.011719 L 125.261719 1322.554688 L 125.261719 1321.835938 C 125.472656 1321.128906 125.585938 1320.40625 125.628906 1319.671875 C 125.585938 1318.9375 125.472656 1318.203125 125.261719 1317.496094 L 125.261719 1316.773438 L 124.539062 1315.320312 L 22.148438 1130.785156 L 90.167969 1008.128906 L 262.742188 1319.671875 L 90.167969 1631.203125 L 22.148438 1508.546875 Z M -71.546875 1640.96875 L -416.703125 1640.96875 L -243.765625 1329.070312 L -97.960938 1329.070312 L 1.53125 1508.902344 Z M -519.445312 1165.527344 L -345.417969 1165.527344 L -259.324219 1320.027344 L -431.894531 1631.570312 L -604.464844 1320.027344 Z M -691.296875 1147.433594 L -518.355469 835.167969 L -173.214844 835.167969 L -253.53125 980.621094 L -435.144531 980.621094 L -436.601562 981.359375 L -437.320312 982.078125 L -438.410156 982.800781 L -439.132812 983.519531 L -439.851562 984.609375 L -529.578125 1146.714844 L -690.941406 1146.714844 Z M -706.488281 514.59375 L -533.917969 826.121094 L -706.488281 1137.667969 L -878.707031 826.121094 Z M -439.851562 674.152344 L -439.132812 675.242188 L -438.410156 675.960938 L -437.320312 676.683594 L -436.601562 677.769531 L -435.144531 678.492188 L -249.546875 678.492188 L -172.847656 816.722656 L -518.003906 816.722656 L -690.941406 505.179688 L -533.550781 505.179688 Z M -604.464844 339.457031 L -431.894531 27.925781 L -259.324219 339.457031 L -340.726562 486.71875 L -523.0625 486.71875 Z M -71.546875 18.144531 L 14.914062 174.101562 L -71.546875 330.410156 L -243.765625 330.410156 L -416.703125 18.511719 L -71.546875 18.511719 Z M 116.582031 27.925781 L 289.152344 339.457031 L 116.582031 651 L 35.535156 504.457031 L 124.539062 343.796875 L 125.261719 342.351562 L 125.261719 341.632812 C 125.472656 340.925781 125.585938 340.191406 125.628906 339.457031 C 125.585938 338.722656 125.472656 338 125.261719 337.292969 L 125.261719 336.558594 L 124.539062 335.117188 L 35.535156 174.46875 Z M 649.855469 330.410156 L 305.066406 330.410156 L 132.144531 18.511719 L 477.285156 18.511719 Z M 364.761719 487.085938 L 361.511719 487.085938 L 360.070312 487.808594 L 359.335938 488.527344 L 358.261719 489.265625 L 357.527344 489.984375 L 356.804688 491.074219 L 263.109375 660.398438 L 132.144531 660.398438 L 305.066406 348.5 L 650.222656 348.5 L 573.527344 486.71875 L 364.761719 486.71875 Z M 456.296875 1008.847656 L 532.996094 1147.433594 L 379.96875 1147.433594 Z M 379.601562 504.8125 L 563.027344 504.8125 L 476.917969 660.765625 L 466.0625 660.765625 Z M 364.410156 514.59375 L 445.445312 660.765625 L 283.726562 660.765625 Z M 191.839844 826.121094 L 273.242188 678.859375 L 455.210938 678.859375 L 536.980469 826.121094 L 451.589844 980.621094 L 277.578125 980.621094 Z M -50.929688 330.410156 L 25.046875 192.914062 L 101.023438 330.410156 Z M 101.390625 348.5 L 25.414062 486 L -50.5625 348.5 L 101.742188 348.5 Z M -327.695312 500.472656 L -243.765625 348.5 L -71.546875 348.5 L 14.914062 504.457031 L -71.546875 660.398438 L -239.058594 660.398438 Z M -338.183594 519.285156 L -259.679688 661.136719 L -416.703125 661.136719 Z M -512.929688 505.179688 L -351.214844 505.179688 L -432.25 651.355469 Z M -416.703125 998.714844 L -263.664062 998.714844 L -340.359375 1136.945312 Z M -431.894531 1008.496094 L -354.832031 1147.433594 L -508.960938 1147.433594 Z M -97.960938 1310.980469 L -243.765625 1310.980469 L -329.875 1155.757812 L -243.042969 998.714844 L -71.914062 998.714844 L 1.164062 1130.785156 Z M 101.390625 1329.070312 L 12.015625 1490.089844 L -77.339844 1329.070312 Z M -77.339844 1310.980469 L 12.015625 1149.609375 L 101.390625 1310.980469 Z M 90.535156 980.621094 L 87.273438 980.621094 L 85.832031 981.359375 L 85.109375 982.078125 L 84.023438 982.800781 L 83.300781 983.519531 L 82.566406 984.609375 L 12.015625 1112.339844 L -58.164062 985.328125 C -59.761719 982.417969 -62.8125 980.621094 -66.121094 980.621094 L -232.542969 980.621094 L -149.332031 830.460938 L -148.613281 829.019531 L -148.613281 828.300781 C -148.398438 827.59375 -148.285156 826.859375 -148.242188 826.121094 C -148.285156 825.386719 -148.398438 824.667969 -148.613281 823.960938 L -148.613281 823.226562 L -149.332031 821.785156 L -228.574219 678.859375 L -65.765625 678.859375 C -62.445312 678.875 -59.394531 677.0625 -57.796875 674.152344 L 25.769531 523.269531 L 108.625 674.152344 L 109.347656 675.242188 L 110.066406 675.960938 L 111.15625 676.683594 L 111.878906 677.417969 L 113.320312 678.136719 L 252.609375 678.136719 L 173.382812 821.0625 C 171.898438 823.761719 171.898438 827.042969 173.382812 829.742188 L 256.59375 979.902344 L 90.167969 979.902344 Z M 287.710938 998.714844 L 441.824219 998.714844 L 364.761719 1137.667969 Z M 724.742188 505.179688 L 897.679688 817.445312 L 552.894531 817.445312 L 476.195312 679.226562 L 482.34375 679.226562 C 485.664062 679.226562 488.71875 677.429688 490.3125 674.519531 L 584.011719 505.179688 L 725.109375 505.179688 Z M 921.917969 828.300781 C 922.128906 827.59375 922.257812 826.859375 922.285156 826.121094 C 922.257812 825.386719 922.128906 824.667969 921.917969 823.960938 L 921.917969 823.226562 L 921.195312 821.785156 L 738.140625 491.425781 C 736.542969 488.515625 733.492188 486.71875 730.167969 486.71875 L 594.144531 486.71875 L 673.371094 343.796875 L 674.09375 342.351562 L 674.09375 341.632812 C 674.304688 340.925781 674.429688 340.191406 674.460938 339.457031 C 674.429688 338.722656 674.304688 338 674.09375 337.292969 L 674.09375 336.558594 L 673.371094 335.117188 L 490.3125 5.128906 C 488.71875 2.214844 485.664062 0.40625 482.34375 0.421875 L 113.320312 0.421875 L 111.878906 1.140625 L 111.15625 1.863281 L 110.066406 2.597656 L 109.347656 3.316406 L 108.625 4.40625 L 25.414062 155.640625 L -58.164062 5.128906 C -59.761719 2.214844 -62.8125 0.40625 -66.121094 0.421875 L -435.144531 0.421875 L -436.601562 1.140625 L -437.320312 1.863281 L -438.410156 2.597656 L -439.132812 3.316406 L -439.851562 4.40625 L -622.921875 335.117188 C -624.394531 337.816406 -624.394531 341.09375 -622.921875 343.796875 L -543.683594 486.71875 L -709.386719 486.71875 L -710.839844 487.453125 L -711.5625 488.175781 L -712.648438 488.894531 L -713.371094 489.617188 L -714.089844 490.707031 L -897.148438 821.785156 C -898.632812 824.484375 -898.632812 827.761719 -897.148438 830.460938 L -714.089844 1160.820312 L -713.371094 1161.90625 L -712.648438 1162.628906 L -711.5625 1163.347656 L -710.839844 1164.085938 L -709.386719 1164.804688 L -539.710938 1164.804688 L -622.921875 1314.964844 C -624.394531 1317.664062 -624.394531 1320.945312 -622.921875 1323.644531 L -439.851562 1654 L -439.132812 1655.089844 L -438.410156 1655.8125 L -437.320312 1656.53125 L -436.601562 1657.253906 L -435.144531 1657.988281 L -66.121094 1657.988281 C -62.8125 1657.988281 -59.761719 1656.191406 -58.164062 1653.28125 L 12.015625 1527.726562 L 82.214844 1654.722656 L 82.933594 1655.8125 L 83.65625 1656.53125 L 84.742188 1657.253906 L 85.464844 1657.988281 L 86.917969 1658.707031 L 455.945312 1658.707031 C 459.25 1658.722656 462.304688 1656.914062 463.902344 1654 L 646.957031 1323.644531 L 647.691406 1322.203125 L 647.691406 1321.835938 C 647.890625 1321.128906 648.019531 1320.40625 648.046875 1319.671875 C 648.019531 1318.9375 647.890625 1318.203125 647.691406 1317.496094 L 647.691406 1316.773438 L 646.957031 1315.320312 L 563.746094 1165.160156 L 730.167969 1165.160156 C 733.492188 1165.171875 736.542969 1163.363281 738.140625 1160.464844 L 921.195312 830.109375 L 921.917969 828.652344 L 921.917969 827.933594 L 921.917969 828.300781 " fill-opacity="1" fill-rule="nonzero"/></g></g></g></svg>